<svg width="47" height="46" viewBox="0 0 47 46" fill="none" xmlns="http://www.w3.org/2000/svg">
<path d="M35.9648 28.7198C35.9648 29.7293 35.9761 30.5996 35.986 31.3563C36.0025 32.6165 36.0148 33.5618 35.9637 34.3101C35.8822 35.5041 35.6573 35.6925 35.4765 35.7929C35.3168 35.8816 35.0371 35.9693 34.5193 36.0242C34.0078 36.0785 33.3511 36.0932 32.4831 36.0925C32.1154 36.0921 31.7148 36.089 31.2792 36.0857C29.69 36.0735 27.6371 36.0577 25.0351 36.1592C21.5196 36.0437 18.8177 36.1172 16.7623 36.1731C16.573 36.1782 16.3892 36.1832 16.2108 36.1879C15.1432 36.216 14.292 36.2321 13.5967 36.2065C12.8949 36.1806 12.4221 36.1135 12.0915 36.0068C11.7871 35.9087 11.6331 35.7872 11.5257 35.6443C11.4023 35.48 11.2768 35.201 11.1835 34.6853C10.9993 33.6678 10.9996 32.1398 11.0002 29.7131C11.0002 29.5759 11.0003 29.4357 11.0003 29.2926C11.0003 24.2303 12.3676 19.55 14.6036 16.1651C16.841 12.7782 19.872 10.7803 23.2281 10.7803C26.6214 10.7803 29.782 12.6747 32.1319 15.9147C34.481 19.1535 35.9648 23.6776 35.9648 28.7198Z" stroke="white" stroke-width="2"/>
<path d="M1 11.8359L7.42249 16.7434" stroke="white" stroke-width="2" stroke-linecap="round"/>
<path d="M13.8808 1L16.8962 7.42802" stroke="white" stroke-width="2" stroke-linecap="round"/>
<path d="M38.8949 16.523L45.9998 13.4948" stroke="white" stroke-width="2" stroke-linecap="round"/>
<path d="M30.6053 7.72209L34.1579 2.46763" stroke="white" stroke-width="2" stroke-linecap="round"/>
<path d="M6.49997 38.0244C6.49997 36.9198 7.3954 36.0244 8.49997 36.0244H38.4999C39.6045 36.0244 40.4999 36.9198 40.4999 38.0244V43C40.4999 44.1046 39.6045 45 38.4999 45H8.49997C7.3954 45 6.49997 44.1046 6.49997 43V38.0244Z" stroke="white" stroke-width="2"/>
</svg>
