<svg width="34" height="44" viewBox="0 0 34 44" fill="none" xmlns="http://www.w3.org/2000/svg">
<path d="M32 27.1143C32 27.6666 32.4477 28.1143 33 28.1143C33.5523 28.1143 34 27.6666 34 27.1143H32ZM32.4142 1.58579L31.7071 2.29289L32.4142 1.58579ZM5 2H29V0H5V2ZM32 4.99582C32 5.00538 32 5.01495 32 5.02453C32 5.03411 32 5.04371 32 5.05332C32 5.06293 32 5.07256 32 5.0822C32 5.09184 32 5.1015 32 5.11117C32 5.12083 32 5.13052 32 5.14022C32 5.14991 32 5.15963 32 5.16935C32 5.17908 32 5.18882 32 5.19858C32 5.20833 32 5.2181 32 5.22789C32 5.23767 32 5.24747 32 5.25728C32 5.26709 32 5.27692 32 5.28676C32 5.2966 32 5.30646 32 5.31633C32 5.3262 32 5.33608 32 5.34598C32 5.35587 32 5.36579 32 5.37571C32 5.38564 32 5.39558 32 5.40553C32 5.41548 32 5.42545 32 5.43543C32 5.44542 32 5.45541 32 5.46542C32 5.47543 32 5.48546 32 5.4955C32 5.50553 32 5.51559 32 5.52565C32 5.53572 32 5.5458 32 5.55589C32 5.56599 32 5.57609 32 5.58622C32 5.59634 32 5.60647 32 5.61662C32 5.62677 32 5.63694 32 5.64711C32 5.65729 32 5.66748 32 5.67769C32 5.68789 32 5.69811 32 5.70834C32 5.71858 32 5.72882 32 5.73908C32 5.74934 32 5.75962 32 5.7699C32 5.78019 32 5.79049 32 5.80081C32 5.81112 32 5.82145 32 5.83179C32 5.84214 32 5.85249 32 5.86286C32 5.87323 32 5.88362 32 5.89401C32 5.90441 32 5.91482 32 5.92524C32 5.93567 32 5.94611 32 5.95656C32 5.96701 32 5.97747 32 5.98795C32 5.99843 32 6.00892 32 6.01943C32 6.02993 32 6.04045 32 6.05098C32 6.06152 32 6.07206 32 6.08262C32 6.09318 32 6.10375 32 6.11434C32 6.12492 32 6.13552 32 6.14614C32 6.15675 32 6.16737 32 6.17801C32 6.18865 32 6.19931 32 6.20997C32 6.22064 32 6.23132 32 6.24201C32 6.2527 32 6.26341 32 6.27413C32 6.28485 32 6.29558 32 6.30633C32 6.31707 32 6.32783 32 6.3386C32 6.34938 32 6.36016 32 6.37096C32 6.38176 32 6.39257 32 6.40339C32 6.41422 32 6.42506 32 6.43591C32 6.44676 32 6.45762 32 6.4685C32 6.47938 32 6.49027 32 6.50117C32 6.51207 32 6.52299 32 6.53392C32 6.54485 32 6.55579 32 6.56675C32 6.5777 32 6.58867 32 6.59965C32 6.61063 32 6.62163 32 6.63264C32 6.64364 32 6.65466 32 6.6657C32 6.67673 32 6.68778 32 6.69884C32 6.70989 32 6.72097 32 6.73205C32 6.74313 32 6.75423 32 6.76534C32 6.77645 32 6.78758 32 6.79871C32 6.80985 32 6.821 32 6.83216C32 6.84332 32 6.85449 32 6.86568C32 6.87687 32 6.88807 32 6.89928C32 6.91049 32 6.92172 32 6.93295C32 6.94419 32 6.95544 32 6.9667C32 6.97797 32 6.98924 32 7.00053C32 7.01182 32 7.02312 32 7.03443C32 7.04575 32 7.05707 32 7.06841C32 7.07975 32 7.0911 32 7.10246C32 7.11383 32 7.1252 32 7.13659C32 7.14798 32 7.15938 32 7.1708C32 7.18221 32 7.19364 32 7.20507C32 7.21651 32 7.22796 32 7.23943C32 7.25089 32 7.26237 32 7.27385C32 7.28534 32 7.29684 32 7.30835C32 7.31987 32 7.33139 32 7.34293C32 7.35447 32 7.36602 32 7.37758C32 7.38914 32 7.40071 32 7.4123C32 7.42389 32 7.43549 32 7.4471C32 7.45871 32 7.47033 32 7.48197C32 7.4936 32 7.50525 32 7.51691C32 7.52857 32 7.54024 32 7.55193C32 7.56361 32 7.57531 32 7.58701C32 7.59872 32 7.61044 32 7.62217C32 7.63391 32 7.64565 32 7.65741C32 7.66917 32 7.68093 32 7.69271C32 7.70449 32 7.71629 32 7.72809C32 7.7399 32 7.75171 32 7.76354C32 7.77537 32 7.78721 32 7.79906C32 7.81092 32 7.82278 32 7.83466C32 7.84653 32 7.85842 32 7.87032C32 7.88222 32 7.89413 32 7.90606C32 7.91798 32 7.92992 32 7.94186C32 7.95381 32 7.96577 32 7.97774C32 7.98971 32 8.0017 32 8.01369C32 8.02568 32 8.03769 32 8.04971C32 8.06173 32 8.07376 32 8.0858C32 8.09784 32 8.10989 32 8.12196C32 8.13402 32 8.1461 32 8.15819C32 8.17028 32 8.18238 32 8.19449C32 8.2066 32 8.21872 32 8.23086C32 8.24299 32 8.25514 32 8.26729C32 8.27945 32 8.29162 32 8.3038C32 8.31598 32 8.32817 32 8.34038C32 8.35258 32 8.3648 32 8.37702C32 8.38925 32 8.40149 32 8.41374C32 8.42599 32 8.43825 32 8.45052C32 8.46279 32 8.47508 32 8.48737C32 8.49967 32 8.51197 32 8.52429C32 8.53661 32 8.54894 32 8.56128C32 8.57362 32 8.58597 32 8.59833C32 8.6107 32 8.62307 32 8.63546C32 8.64784 32 8.66024 32 8.67265C32 8.68506 32 8.69748 32 8.70991C32 8.72234 32 8.73478 32 8.74723C32 8.75968 32 8.77215 32 8.78462C32 8.7971 32 8.80959 32 8.82208C32 8.83458 32 8.84709 32 8.85961C32 8.87213 32 8.88466 32 8.8972C32 8.90974 32 8.92229 32 8.93486C32 8.94742 32 8.96 32 8.97258C32 8.98517 32 8.99777 32 9.01037C32 9.02298 32 9.0356 32 9.04823C32 9.06086 32 9.0735 32 9.08615C32 9.0988 32 9.11146 32 9.12414C32 9.13681 32 9.14949 32 9.16219C32 9.17488 32 9.18759 32 9.20031C32 9.21302 32 9.22575 32 9.23849C32 9.25123 32 9.26398 32 9.27674C32 9.2895 32 9.30227 32 9.31505C32 9.32783 32 9.34062 32 9.35342C32 9.36622 32 9.37904 32 9.39186C32 9.40469 32 9.41752 32 9.43037C32 9.44321 32 9.45607 32 9.46893C32 9.4818 32 9.49468 32 9.50756C32 9.52045 32 9.53335 32 9.54626C32 9.55917 32 9.57209 32 9.58502C32 9.59795 32 9.61089 32 9.62384C32 9.63679 32 9.64975 32 9.66272C32 9.67569 32 9.68867 32 9.70167C32 9.71466 32 9.72766 32 9.74068C32 9.75369 32 9.76671 32 9.77975C32 9.79278 32 9.80583 32 9.81888C32 9.83194 32 9.845 32 9.85808C32 9.87115 32 9.88424 32 9.89734C32 9.91043 32 9.92354 32 9.93666C32 9.94977 32 9.9629 32 9.97604C32 9.98917 32 10.0023 32 10.0155C32 10.0286 32 10.0418 32 10.055C32 10.0682 32 10.0813 32 10.0945C32 10.1077 32 10.121 32 10.1342C32 10.1474 32 10.1606 32 10.1739C32 10.1871 32 10.2003 32 10.2136C32 10.2269 32 10.2401 32 10.2534C32 10.2667 32 10.28 32 10.2933C32 10.3066 32 10.3199 32 10.3332C32 10.3465 32 10.3598 32 10.3732C32 10.3865 32 10.3999 32 10.4132C32 10.4266 32 10.44 32 10.4533C32 10.4667 32 10.4801 32 10.4935C32 10.5069 32 10.5203 32 10.5337C32 10.5471 32 10.5606 32 10.574C32 10.5874 32 10.6009 32 10.6143C32 10.6278 32 10.6413 32 10.6547C32 10.6682 32 10.6817 32 10.6952C32 10.7087 32 10.7222 32 10.7357C32 10.7492 32 10.7628 32 10.7763C32 10.7898 32 10.8034 32 10.8169C32 10.8305 32 10.844 32 10.8576C32 10.8712 32 10.8848 32 10.8984C32 10.912 32 10.9256 32 10.9392C32 10.9528 32 10.9664 32 10.98C32 10.9937 32 11.0073 32 11.0209C32 11.0346 32 11.0483 32 11.0619C32 11.0756 32 11.0893 32 11.103C32 11.1166 32 11.1303 32 11.144C32 11.1577 32 11.1715 32 11.1852C32 11.1989 32 11.2126 32 11.2264C32 11.2401 32 11.2539 32 11.2676C32 11.2814 32 11.2952 32 11.3089C32 11.3227 32 11.3365 32 11.3503C32 11.3641 32 11.3779 32 11.3917C32 11.4056 32 11.4194 32 11.4332C32 11.447 32 11.4609 32 11.4747C32 11.4886 32 11.5025 32 11.5163C32 11.5302 32 11.5441 32 11.558C32 11.5719 32 11.5858 32 11.5997C32 11.6136 32 11.6275 32 11.6414C32 11.6553 32 11.6693 32 11.6832C32 11.6972 32 11.7111 32 11.7251C32 11.739 32 11.753 32 11.767C32 11.781 32 11.795 32 11.809C32 11.823 32 11.837 32 11.851C32 11.865 32 11.879 32 11.8931C32 11.9071 32 11.9211 32 11.9352C32 11.9492 32 11.9633 32 11.9774C32 11.9914 32 12.0055 32 12.0196C32 12.0337 32 12.0478 32 12.0619C32 12.076 32 12.0901 32 12.1042C32 12.1183 32 12.1325 32 12.1466C32 12.1607 32 12.1749 32 12.189C32 12.2032 32 12.2173 32 12.2315C32 12.2457 32 12.2599 32 12.2741C32 12.2883 32 12.3025 32 12.3167C32 12.3309 32 12.3451 32 12.3593C32 12.3735 32 12.3878 32 12.402C32 12.4162 32 12.4305 32 12.4447C32 12.459 32 12.4733 32 12.4875C32 12.5018 32 12.5161 32 12.5304C32 12.5447 32 12.559 32 12.5733C32 12.5876 32 12.6019 32 12.6162C32 12.6306 32 12.6449 32 12.6592C32 12.6736 32 12.6879 32 12.7023C32 12.7167 32 12.731 32 12.7454C32 12.7598 32 12.7741 32 12.7885C32 12.8029 32 12.8173 32 12.8317C32 12.8461 32 12.8606 32 12.875C32 12.8894 32 12.9038 32 12.9183C32 12.9327 32 12.9472 32 12.9616C32 12.9761 32 12.9905 32 13.005C32 13.0195 32 13.034 32 13.0485C32 13.0629 32 13.0774 32 13.0919C32 13.1065 32 13.121 32 13.1355C32 13.15 32 13.1645 32 13.1791C32 13.1936 32 13.2082 32 13.2227C32 13.2373 32 13.2518 32 13.2664C32 13.281 32 13.2955 32 13.3101C32 13.3247 32 13.3393 32 13.3539C32 13.3685 32 13.3831 32 13.3977C32 13.4123 32 13.427 32 13.4416C32 13.4562 32 13.4709 32 13.4855C32 13.5001 32 13.5148 32 13.5295C32 13.5441 32 13.5588 32 13.5735C32 13.5881 32 13.6028 32 13.6175C32 13.6322 32 13.6469 32 13.6616C32 13.6763 32 13.6911 32 13.7058C32 13.7205 32 13.7352 32 13.75C32 13.7647 32 13.7795 32 13.7942C32 13.809 32 13.8237 32 13.8385C32 13.8533 32 13.868 32 13.8828C32 13.8976 32 13.9124 32 13.9272C32 13.942 32 13.9568 32 13.9716C32 13.9864 32 14.0012 32 14.0161C32 14.0309 32 14.0457 32 14.0606C32 14.0754 32 14.0903 32 14.1051C32 14.12 32 14.1348 32 14.1497C32 14.1646 32 14.1795 32 14.1944C32 14.2092 32 14.2241 32 14.239C32 14.2539 32 14.2689 32 14.2838C32 14.2987 32 14.3136 32 14.3285C32 14.3435 32 14.3584 32 14.3733C32 14.3883 32 14.4032 32 14.4182C32 14.4332 32 14.4481 32 14.4631C32 14.4781 32 14.4931 32 14.508C32 14.523 32 14.538 32 14.553C32 14.568 32 14.583 32 14.598C32 14.6131 32 14.6281 32 14.6431C32 14.6581 32 14.6732 32 14.6882C32 14.7033 32 14.7183 32 14.7334C32 14.7484 32 14.7635 32 14.7786C32 14.7936 32 14.8087 32 14.8238C32 14.8389 32 14.854 32 14.8691C32 14.8842 32 14.8993 32 14.9144C32 14.9295 32 14.9446 32 14.9598C32 14.9749 32 14.99 32 15.0051C32 15.0203 32 15.0354 32 15.0506C32 15.0657 32 15.0809 32 15.0961C32 15.1112 32 15.1264 32 15.1416C32 15.1568 32 15.1719 32 15.1871C32 15.2023 32 15.2175 32 15.2327C32 15.2479 32 15.2632 32 15.2784C32 15.2936 32 15.3088 32 15.3241C32 15.3393 32 15.3545 32 15.3698C32 15.385 32 15.4003 32 15.4155C32 15.4308 32 15.446 32 15.4613C32 15.4766 32 15.4919 32 15.5072C32 15.5224 32 15.5377 32 15.553C32 15.5683 32 15.5836 32 15.5989C32 15.6142 32 15.6296 32 15.6449C32 15.6602 32 15.6755 32 15.6909C32 15.7062 32 15.7215 32 15.7369C32 15.7522 32 15.7676 32 15.783C32 15.7983 32 15.8137 32 15.8291C32 15.8444 32 15.8598 32 15.8752C32 15.8906 32 15.906 32 15.9214C32 15.9368 32 15.9522 32 15.9676C32 15.983 32 15.9984 32 16.0138C32 16.0292 32 16.0447 32 16.0601C32 16.0755 32 16.091 32 16.1064C32 16.1219 32 16.1373 32 16.1528C32 16.1682 32 16.1837 32 16.1992C32 16.2146 32 16.2301 32 16.2456C32 16.2611 32 16.2766 32 16.2921C32 16.3076 32 16.3231 32 16.3386C32 16.3541 32 16.3696 32 16.3851C32 16.4006 32 16.4161 32 16.4317C32 16.4472 32 16.4627 32 16.4783C32 16.4938 32 16.5094 32 16.5249C32 16.5405 32 16.556 32 16.5716C32 16.5872 32 16.6027 32 16.6183C32 16.6339 32 16.6495 32 16.665C32 16.6806 32 16.6962 32 16.7118C32 16.7274 32 16.743 32 16.7586C32 16.7742 32 16.7899 32 16.8055C32 16.8211 32 16.8367 32 16.8524C32 16.868 32 16.8836 32 16.8993C32 16.9149 32 16.9306 32 16.9462C32 16.9619 32 16.9775 32 16.9932C32 17.0089 32 17.0245 32 17.0402C32 17.0559 32 17.0716 32 17.0872C32 17.1029 32 17.1186 32 17.1343C32 17.15 32 17.1657 32 17.1814C32 17.1971 32 17.2128 32 17.2286C32 17.2443 32 17.26 32 17.2757C32 17.2915 32 17.3072 32 17.3229C32 17.3387 32 17.3544 32 17.3702C32 17.3859 32 17.4017 32 17.4174C32 17.4332 32 17.449 32 17.4647C32 17.4805 32 17.4963 32 17.5121C32 17.5279 32 17.5436 32 17.5594C32 17.5752 32 17.591 32 17.6068C32 17.6226 32 17.6384 32 17.6543C32 17.6701 32 17.6859 32 17.7017C32 17.7175 32 17.7334 32 17.7492C32 17.765 32 17.7809 32 17.7967C32 17.8125 32 17.8284 32 17.8442C32 17.8601 32 17.876 32 17.8918C32 17.9077 32 17.9235 32 17.9394C32 17.9553 32 17.9712 32 17.9871C32 18.0029 32 18.0188 32 18.0347C32 18.0506 32 18.0665 32 18.0824C32 18.0983 32 18.1142 32 18.1301C32 18.146 32 18.1619 32 18.1779C32 18.1938 32 18.2097 32 18.2256C32 18.2416 32 18.2575 32 18.2734C32 18.2894 32 18.3053 32 18.3213C32 18.3372 32 18.3532 32 18.3691C32 18.3851 32 18.4011 32 18.417C32 18.433 32 18.449 32 18.4649C32 18.4809 32 18.4969 32 18.5129C32 18.5289 32 18.5449 32 18.5609C32 18.5769 32 18.5928 32 18.6089C32 18.6249 32 18.6409 32 18.6569C32 18.6729 32 18.6889 32 18.7049C32 18.7209 32 18.737 32 18.753C32 18.769 32 18.7851 32 18.8011C32 18.8171 32 18.8332 32 18.8492C32 18.8653 32 18.8813 32 18.8974C32 18.9135 32 18.9295 32 18.9456C32 18.9616 32 18.9777 32 18.9938C32 19.0099 32 19.0259 32 19.042C32 19.0581 32 19.0742 32 19.0903C32 19.1064 32 19.1225 32 19.1386C32 19.1547 32 19.1708 32 19.1869C32 19.203 32 19.2191 32 19.2352C32 19.2513 32 19.2674 32 19.2836C32 19.2997 32 19.3158 32 19.3319C32 19.3481 32 19.3642 32 19.3803C32 19.3965 32 19.4126 32 19.4288C32 19.4449 32 19.4611 32 19.4772C32 19.4934 32 19.5095 32 19.5257C32 19.5419 32 19.558 32 19.5742C32 19.5904 32 19.6065 32 19.6227C32 19.6389 32 19.6551 32 19.6713C32 19.6875 32 19.7036 32 19.7198C32 19.736 32 19.7522 32 19.7684C32 19.7846 32 19.8008 32 19.8171C32 19.8333 32 19.8495 32 19.8657C32 19.8819 32 19.8981 32 19.9144C32 19.9306 32 19.9468 32 19.963C32 19.9793 32 19.9955 32 20.0117C32 20.028 32 20.0442 32 20.0605C32 20.0767 32 20.093 32 20.1092C32 20.1255 32 20.1417 32 20.158C32 20.1742 32 20.1905 32 20.2068C32 20.223 32 20.2393 32 20.2556C32 20.2719 32 20.2881 32 20.3044C32 20.3207 32 20.337 32 20.3533C32 20.3696 32 20.3858 32 20.4021C32 20.4184 32 20.4347 32 20.451C32 20.4673 32 20.4836 32 20.5C32 20.5163 32 20.5326 32 20.5489C32 20.5652 32 20.5815 32 20.5978C32 20.6142 32 20.6305 32 20.6468C32 20.6631 32 20.6795 32 20.6958C32 20.7121 32 20.7285 32 20.7448C32 20.7612 32 20.7775 32 20.7938C32 20.8102 32 20.8265 32 20.8429C32 20.8593 32 20.8756 32 20.892C32 20.9083 32 20.9247 32 20.9411C32 20.9574 32 20.9738 32 20.9902C32 21.0065 32 21.0229 32 21.0393C32 21.0557 32 21.072 32 21.0884C32 21.1048 32 21.1212 32 21.1376C32 21.154 32 21.1704 32 21.1868C32 21.2032 32 21.2196 32 21.236C32 21.2524 32 21.2688 32 21.2852C32 21.3016 32 21.318 32 21.3344C32 21.3508 32 21.3672 32 21.3836C32 21.4001 32 21.4165 32 21.4329C32 21.4493 32 21.4658 32 21.4822C32 21.4986 32 21.5151 32 21.5315C32 21.5479 32 21.5644 32 21.5808C32 21.5972 32 21.6137 32 21.6301C32 21.6466 32 21.663 32 21.6795C32 21.6959 32 21.7124 32 21.7288C32 21.7453 32 21.7618 32 21.7782C32 21.7947 32 21.8111 32 21.8276C32 21.8441 32 21.8605 32 21.877C32 21.8935 32 21.91 32 21.9264C32 21.9429 32 21.9594 32 21.9759C32 21.9923 32 22.0088 32 22.0253C32 22.0418 32 22.0583 32 22.0748C32 22.0913 32 22.1078 32 22.1243C32 22.1408 32 22.1573 32 22.1738C32 22.1903 32 22.2068 32 22.2233C32 22.2398 32 22.2563 32 22.2728C32 22.2893 32 22.3058 32 22.3223C32 22.3388 32 22.3554 32 22.3719C32 22.3884 32 22.4049 32 22.4214C32 22.438 32 22.4545 32 22.471C32 22.4875 32 22.5041 32 22.5206C32 22.5371 32 22.5537 32 22.5702C32 22.5867 32 22.6033 32 22.6198C32 22.6364 32 22.6529 32 22.6694C32 22.686 32 22.7025 32 22.7191C32 22.7356 32 22.7522 32 22.7687C32 22.7853 32 22.8018 32 22.8184C32 22.8349 32 22.8515 32 22.8681C32 22.8846 32 22.9012 32 22.9177C32 22.9343 32 22.9509 32 22.9674C32 22.984 32 23.0006 32 23.0172C32 23.0337 32 23.0503 32 23.0669C32 23.0834 32 23.1 32 23.1166C32 23.1332 32 23.1498 32 23.1663C32 23.1829 32 23.1995 32 23.2161C32 23.2327 32 23.2493 32 23.2659C32 23.2824 32 23.299 32 23.3156C32 23.3322 32 23.3488 32 23.3654C32 23.382 32 23.3986 32 23.4152C32 23.4318 32 23.4484 32 23.465C32 23.4816 32 23.4982 32 23.5148C32 23.5314 32 23.548 32 23.5646C32 23.5812 32 23.5978 32 23.6145C32 23.6311 32 23.6477 32 23.6643C32 23.6809 32 23.6975 32 23.7141C32 23.7307 32 23.7474 32 23.764C32 23.7806 32 23.7972 32 23.8138C32 23.8305 32 23.8471 32 23.8637C32 23.8803 32 23.897 32 23.9136C32 23.9302 32 23.9469 32 23.9635C32 23.9801 32 23.9967 32 24.0134C32 24.03 32 24.0466 32 24.0633C32 24.0799 32 24.0965 32 24.1132C32 24.1298 32 24.1465 32 24.1631C32 24.1797 32 24.1964 32 24.213C32 24.2297 32 24.2463 32 24.263C32 24.2796 32 24.2962 32 24.3129C32 24.3295 32 24.3462 32 24.3628C32 24.3795 32 24.3961 32 24.4128C32 24.4294 32 24.4461 32 24.4627C32 24.4794 32 24.496 32 24.5127C32 24.5293 32 24.546 32 24.5627C32 24.5793 32 24.596 32 24.6126C32 24.6293 32 24.6459 32 24.6626C32 24.6793 32 24.6959 32 24.7126C32 24.7292 32 24.7459 32 24.7626C32 24.7792 32 24.7959 32 24.8126C32 24.8292 32 24.8459 32 24.8626C32 24.8792 32 24.8959 32 24.9126C32 24.9292 32 24.9459 32 24.9626C32 24.9792 32 24.9959 32 25.0126C32 25.0292 32 25.0459 32 25.0626C32 25.0793 32 25.0959 32 25.1126C32 25.1293 32 25.1459 32 25.1626C32 25.1793 32 25.196 32 25.2126C32 25.2293 32 25.246 32 25.2627C32 25.2793 32 25.296 32 25.3127C32 25.3294 32 25.3461 32 25.3627C32 25.3794 32 25.3961 32 25.4128C32 25.4294 32 25.4461 32 25.4628C32 25.4795 32 25.4962 32 25.5128C32 25.5295 32 25.5462 32 25.5629C32 25.5796 32 25.5962 32 25.6129C32 25.6296 32 25.6463 32 25.663C32 25.6797 32 25.6963 32 25.713C32 25.7297 32 25.7464 32 25.7631C32 25.7798 32 25.7964 32 25.8131C32 25.8298 32 25.8465 32 25.8632C32 25.8799 32 25.8965 32 25.9132C32 25.9299 32 25.9466 32 25.9633C32 25.98 32 25.9966 32 26.0133C32 26.03 32 26.0467 32 26.0634C32 26.0801 32 26.0968 32 26.1134C32 26.1301 32 26.1468 32 26.1635C32 26.1802 32 26.1969 32 26.2135C32 26.2302 32 26.2469 32 26.2636C32 26.2803 32 26.297 32 26.3136C32 26.3303 32 26.347 32 26.3637C32 26.3804 32 26.3971 32 26.4138C32 26.4304 32 26.4471 32 26.4638C32 26.4805 32 26.4972 32 26.5139C32 26.5305 32 26.5472 32 26.5639C32 26.5806 32 26.5973 32 26.6139C32 26.6306 32 26.6473 32 26.664C32 26.6807 32 26.6973 32 26.714C32 26.7307 32 26.7474 32 26.7641C32 26.7807 32 26.7974 32 26.8141C32 26.8308 32 26.8475 32 26.8641C32 26.8808 32 26.8975 32 26.9142C32 26.9309 32 26.9475 32 26.9642C32 26.9809 32 26.9976 32 27.0142C32 27.0309 32 27.0476 32 27.0643C32 27.0809 32 27.0976 32 27.1143H34C34 27.0976 34 27.0809 34 27.0643C34 27.0476 34 27.0309 34 27.0142C34 26.9976 34 26.9809 34 26.9642C34 26.9475 34 26.9309 34 26.9142C34 26.8975 34 26.8808 34 26.8641C34 26.8475 34 26.8308 34 26.8141C34 26.7974 34 26.7807 34 26.7641C34 26.7474 34 26.7307 34 26.714C34 26.6973 34 26.6807 34 26.664C34 26.6473 34 26.6306 34 26.6139C34 26.5973 34 26.5806 34 26.5639C34 26.5472 34 26.5305 34 26.5139C34 26.4972 34 26.4805 34 26.4638C34 26.4471 34 26.4304 34 26.4138C34 26.3971 34 26.3804 34 26.3637C34 26.347 34 26.3303 34 26.3136C34 26.297 34 26.2803 34 26.2636C34 26.2469 34 26.2302 34 26.2135C34 26.1969 34 26.1802 34 26.1635C34 26.1468 34 26.1301 34 26.1134C34 26.0968 34 26.0801 34 26.0634C34 26.0467 34 26.03 34 26.0133C34 25.9966 34 25.98 34 25.9633C34 25.9466 34 25.9299 34 25.9132C34 25.8965 34 25.8799 34 25.8632C34 25.8465 34 25.8298 34 25.8131C34 25.7964 34 25.7798 34 25.7631C34 25.7464 34 25.7297 34 25.713C34 25.6963 34 25.6797 34 25.663C34 25.6463 34 25.6296 34 25.6129C34 25.5962 34 25.5796 34 25.5629C34 25.5462 34 25.5295 34 25.5128C34 25.4962 34 25.4795 34 25.4628C34 25.4461 34 25.4294 34 25.4128C34 25.3961 34 25.3794 34 25.3627C34 25.3461 34 25.3294 34 25.3127C34 25.296 34 25.2793 34 25.2627C34 25.246 34 25.2293 34 25.2126C34 25.196 34 25.1793 34 25.1626C34 25.1459 34 25.1293 34 25.1126C34 25.0959 34 25.0793 34 25.0626C34 25.0459 34 25.0292 34 25.0126C34 24.9959 34 24.9792 34 24.9626C34 24.9459 34 24.9292 34 24.9126C34 24.8959 34 24.8792 34 24.8626C34 24.8459 34 24.8292 34 24.8126C34 24.7959 34 24.7792 34 24.7626C34 24.7459 34 24.7292 34 24.7126C34 24.6959 34 24.6793 34 24.6626C34 24.6459 34 24.6293 34 24.6126C34 24.596 34 24.5793 34 24.5627C34 24.546 34 24.5293 34 24.5127C34 24.496 34 24.4794 34 24.4627C34 24.4461 34 24.4294 34 24.4128C34 24.3961 34 24.3795 34 24.3628C34 24.3462 34 24.3295 34 24.3129C34 24.2962 34 24.2796 34 24.263C34 24.2463 34 24.2297 34 24.213C34 24.1964 34 24.1797 34 24.1631C34 24.1465 34 24.1298 34 24.1132C34 24.0965 34 24.0799 34 24.0633C34 24.0466 34 24.03 34 24.0134C34 23.9967 34 23.9801 34 23.9635C34 23.9469 34 23.9302 34 23.9136C34 23.897 34 23.8803 34 23.8637C34 23.8471 34 23.8305 34 23.8138C34 23.7972 34 23.7806 34 23.764C34 23.7474 34 23.7307 34 23.7141C34 23.6975 34 23.6809 34 23.6643C34 23.6477 34 23.6311 34 23.6145C34 23.5978 34 23.5812 34 23.5646C34 23.548 34 23.5314 34 23.5148C34 23.4982 34 23.4816 34 23.465C34 23.4484 34 23.4318 34 23.4152C34 23.3986 34 23.382 34 23.3654C34 23.3488 34 23.3322 34 23.3156C34 23.299 34 23.2824 34 23.2659C34 23.2493 34 23.2327 34 23.2161C34 23.1995 34 23.1829 34 23.1663C34 23.1498 34 23.1332 34 23.1166C34 23.1 34 23.0834 34 23.0669C34 23.0503 34 23.0337 34 23.0172C34 23.0006 34 22.984 34 22.9674C34 22.9509 34 22.9343 34 22.9177C34 22.9012 34 22.8846 34 22.8681C34 22.8515 34 22.8349 34 22.8184C34 22.8018 34 22.7853 34 22.7687C34 22.7522 34 22.7356 34 22.7191C34 22.7025 34 22.686 34 22.6694C34 22.6529 34 22.6364 34 22.6198C34 22.6033 34 22.5867 34 22.5702C34 22.5537 34 22.5371 34 22.5206C34 22.5041 34 22.4875 34 22.471C34 22.4545 34 22.438 34 22.4214C34 22.4049 34 22.3884 34 22.3719C34 22.3554 34 22.3388 34 22.3223C34 22.3058 34 22.2893 34 22.2728C34 22.2563 34 22.2398 34 22.2233C34 22.2068 34 22.1903 34 22.1738C34 22.1573 34 22.1408 34 22.1243C34 22.1078 34 22.0913 34 22.0748C34 22.0583 34 22.0418 34 22.0253C34 22.0088 34 21.9923 34 21.9759C34 21.9594 34 21.9429 34 21.9264C34 21.91 34 21.8935 34 21.877C34 21.8605 34 21.8441 34 21.8276C34 21.8111 34 21.7947 34 21.7782C34 21.7618 34 21.7453 34 21.7288C34 21.7124 34 21.6959 34 21.6795C34 21.663 34 21.6466 34 21.6301C34 21.6137 34 21.5972 34 21.5808C34 21.5644 34 21.5479 34 21.5315C34 21.5151 34 21.4986 34 21.4822C34 21.4658 34 21.4493 34 21.4329C34 21.4165 34 21.4001 34 21.3836C34 21.3672 34 21.3508 34 21.3344C34 21.318 34 21.3016 34 21.2852C34 21.2688 34 21.2524 34 21.236C34 21.2196 34 21.2032 34 21.1868C34 21.1704 34 21.154 34 21.1376C34 21.1212 34 21.1048 34 21.0884C34 21.072 34 21.0557 34 21.0393C34 21.0229 34 21.0065 34 20.9902C34 20.9738 34 20.9574 34 20.9411C34 20.9247 34 20.9083 34 20.892C34 20.8756 34 20.8593 34 20.8429C34 20.8265 34 20.8102 34 20.7938C34 20.7775 34 20.7612 34 20.7448C34 20.7285 34 20.7121 34 20.6958C34 20.6795 34 20.6631 34 20.6468C34 20.6305 34 20.6142 34 20.5978C34 20.5815 34 20.5652 34 20.5489C34 20.5326 34 20.5163 34 20.5C34 20.4836 34 20.4673 34 20.451C34 20.4347 34 20.4184 34 20.4021C34 20.3858 34 20.3696 34 20.3533C34 20.337 34 20.3207 34 20.3044C34 20.2881 34 20.2719 34 20.2556C34 20.2393 34 20.223 34 20.2068C34 20.1905 34 20.1742 34 20.158C34 20.1417 34 20.1255 34 20.1092C34 20.093 34 20.0767 34 20.0605C34 20.0442 34 20.028 34 20.0117C34 19.9955 34 19.9793 34 19.963C34 19.9468 34 19.9306 34 19.9144C34 19.8981 34 19.8819 34 19.8657C34 19.8495 34 19.8333 34 19.8171C34 19.8008 34 19.7846 34 19.7684C34 19.7522 34 19.736 34 19.7198C34 19.7036 34 19.6875 34 19.6713C34 19.6551 34 19.6389 34 19.6227C34 19.6065 34 19.5904 34 19.5742C34 19.558 34 19.5419 34 19.5257C34 19.5095 34 19.4934 34 19.4772C34 19.4611 34 19.4449 34 19.4288C34 19.4126 34 19.3965 34 19.3803C34 19.3642 34 19.3481 34 19.3319C34 19.3158 34 19.2997 34 19.2836C34 19.2674 34 19.2513 34 19.2352C34 19.2191 34 19.203 34 19.1869C34 19.1708 34 19.1547 34 19.1386C34 19.1225 34 19.1064 34 19.0903C34 19.0742 34 19.0581 34 19.042C34 19.0259 34 19.0099 34 18.9938C34 18.9777 34 18.9616 34 18.9456C34 18.9295 34 18.9135 34 18.8974C34 18.8813 34 18.8653 34 18.8492C34 18.8332 34 18.8171 34 18.8011C34 18.7851 34 18.769 34 18.753C34 18.737 34 18.7209 34 18.7049C34 18.6889 34 18.6729 34 18.6569C34 18.6409 34 18.6249 34 18.6089C34 18.5928 34 18.5769 34 18.5609C34 18.5449 34 18.5289 34 18.5129C34 18.4969 34 18.4809 34 18.4649C34 18.449 34 18.433 34 18.417C34 18.4011 34 18.3851 34 18.3691C34 18.3532 34 18.3372 34 18.3213C34 18.3053 34 18.2894 34 18.2734C34 18.2575 34 18.2416 34 18.2256C34 18.2097 34 18.1938 34 18.1779C34 18.1619 34 18.146 34 18.1301C34 18.1142 34 18.0983 34 18.0824C34 18.0665 34 18.0506 34 18.0347C34 18.0188 34 18.0029 34 17.9871C34 17.9712 34 17.9553 34 17.9394C34 17.9235 34 17.9077 34 17.8918C34 17.876 34 17.8601 34 17.8442C34 17.8284 34 17.8125 34 17.7967C34 17.7809 34 17.765 34 17.7492C34 17.7334 34 17.7175 34 17.7017C34 17.6859 34 17.6701 34 17.6543C34 17.6384 34 17.6226 34 17.6068C34 17.591 34 17.5752 34 17.5594C34 17.5436 34 17.5279 34 17.5121C34 17.4963 34 17.4805 34 17.4647C34 17.449 34 17.4332 34 17.4174C34 17.4017 34 17.3859 34 17.3702C34 17.3544 34 17.3387 34 17.3229C34 17.3072 34 17.2915 34 17.2757C34 17.26 34 17.2443 34 17.2286C34 17.2128 34 17.1971 34 17.1814C34 17.1657 34 17.15 34 17.1343C34 17.1186 34 17.1029 34 17.0872C34 17.0716 34 17.0559 34 17.0402C34 17.0245 34 17.0089 34 16.9932C34 16.9775 34 16.9619 34 16.9462C34 16.9306 34 16.9149 34 16.8993C34 16.8836 34 16.868 34 16.8524C34 16.8367 34 16.8211 34 16.8055C34 16.7899 34 16.7742 34 16.7586C34 16.743 34 16.7274 34 16.7118C34 16.6962 34 16.6806 34 16.665C34 16.6495 34 16.6339 34 16.6183C34 16.6027 34 16.5872 34 16.5716C34 16.556 34 16.5405 34 16.5249C34 16.5094 34 16.4938 34 16.4783C34 16.4627 34 16.4472 34 16.4317C34 16.4161 34 16.4006 34 16.3851C34 16.3696 34 16.3541 34 16.3386C34 16.3231 34 16.3076 34 16.2921C34 16.2766 34 16.2611 34 16.2456C34 16.2301 34 16.2146 34 16.1992C34 16.1837 34 16.1682 34 16.1528C34 16.1373 34 16.1219 34 16.1064C34 16.091 34 16.0755 34 16.0601C34 16.0447 34 16.0292 34 16.0138C34 15.9984 34 15.983 34 15.9676C34 15.9522 34 15.9368 34 15.9214C34 15.906 34 15.8906 34 15.8752C34 15.8598 34 15.8444 34 15.8291C34 15.8137 34 15.7983 34 15.783C34 15.7676 34 15.7522 34 15.7369C34 15.7215 34 15.7062 34 15.6909C34 15.6755 34 15.6602 34 15.6449C34 15.6296 34 15.6142 34 15.5989C34 15.5836 34 15.5683 34 15.553C34 15.5377 34 15.5224 34 15.5072C34 15.4919 34 15.4766 34 15.4613C34 15.446 34 15.4308 34 15.4155C34 15.4003 34 15.385 34 15.3698C34 15.3545 34 15.3393 34 15.3241C34 15.3088 34 15.2936 34 15.2784C34 15.2632 34 15.2479 34 15.2327C34 15.2175 34 15.2023 34 15.1871C34 15.1719 34 15.1568 34 15.1416C34 15.1264 34 15.1112 34 15.0961C34 15.0809 34 15.0657 34 15.0506C34 15.0354 34 15.0203 34 15.0051C34 14.99 34 14.9749 34 14.9598C34 14.9446 34 14.9295 34 14.9144C34 14.8993 34 14.8842 34 14.8691C34 14.854 34 14.8389 34 14.8238C34 14.8087 34 14.7936 34 14.7786C34 14.7635 34 14.7484 34 14.7334C34 14.7183 34 14.7033 34 14.6882C34 14.6732 34 14.6581 34 14.6431C34 14.6281 34 14.6131 34 14.598C34 14.583 34 14.568 34 14.553C34 14.538 34 14.523 34 14.508C34 14.4931 34 14.4781 34 14.4631C34 14.4481 34 14.4332 34 14.4182C34 14.4032 34 14.3883 34 14.3733C34 14.3584 34 14.3435 34 14.3285C34 14.3136 34 14.2987 34 14.2838C34 14.2689 34 14.2539 34 14.239C34 14.2241 34 14.2092 34 14.1944C34 14.1795 34 14.1646 34 14.1497C34 14.1348 34 14.12 34 14.1051C34 14.0903 34 14.0754 34 14.0606C34 14.0457 34 14.0309 34 14.0161C34 14.0012 34 13.9864 34 13.9716C34 13.9568 34 13.942 34 13.9272C34 13.9124 34 13.8976 34 13.8828C34 13.868 34 13.8533 34 13.8385C34 13.8237 34 13.809 34 13.7942C34 13.7795 34 13.7647 34 13.75C34 13.7352 34 13.7205 34 13.7058C34 13.6911 34 13.6763 34 13.6616C34 13.6469 34 13.6322 34 13.6175C34 13.6028 34 13.5881 34 13.5735C34 13.5588 34 13.5441 34 13.5295C34 13.5148 34 13.5001 34 13.4855C34 13.4709 34 13.4562 34 13.4416C34 13.427 34 13.4123 34 13.3977C34 13.3831 34 13.3685 34 13.3539C34 13.3393 34 13.3247 34 13.3101C34 13.2955 34 13.281 34 13.2664C34 13.2518 34 13.2373 34 13.2227C34 13.2082 34 13.1936 34 13.1791C34 13.1645 34 13.15 34 13.1355C34 13.121 34 13.1065 34 13.0919C34 13.0774 34 13.0629 34 13.0485C34 13.034 34 13.0195 34 13.005C34 12.9905 34 12.9761 34 12.9616C34 12.9472 34 12.9327 34 12.9183C34 12.9038 34 12.8894 34 12.875C34 12.8606 34 12.8461 34 12.8317C34 12.8173 34 12.8029 34 12.7885C34 12.7741 34 12.7598 34 12.7454C34 12.731 34 12.7167 34 12.7023C34 12.6879 34 12.6736 34 12.6592C34 12.6449 34 12.6306 34 12.6162C34 12.6019 34 12.5876 34 12.5733C34 12.559 34 12.5447 34 12.5304C34 12.5161 34 12.5018 34 12.4875C34 12.4733 34 12.459 34 12.4447C34 12.4305 34 12.4162 34 12.402C34 12.3878 34 12.3735 34 12.3593C34 12.3451 34 12.3309 34 12.3167C34 12.3025 34 12.2883 34 12.2741C34 12.2599 34 12.2457 34 12.2315C34 12.2173 34 12.2032 34 12.189C34 12.1749 34 12.1607 34 12.1466C34 12.1325 34 12.1183 34 12.1042C34 12.0901 34 12.076 34 12.0619C34 12.0478 34 12.0337 34 12.0196C34 12.0055 34 11.9914 34 11.9774C34 11.9633 34 11.9492 34 11.9352C34 11.9211 34 11.9071 34 11.8931C34 11.879 34 11.865 34 11.851C34 11.837 34 11.823 34 11.809C34 11.795 34 11.781 34 11.767C34 11.753 34 11.739 34 11.7251C34 11.7111 34 11.6972 34 11.6832C34 11.6693 34 11.6553 34 11.6414C34 11.6275 34 11.6136 34 11.5997C34 11.5858 34 11.5719 34 11.558C34 11.5441 34 11.5302 34 11.5163C34 11.5025 34 11.4886 34 11.4747C34 11.4609 34 11.447 34 11.4332C34 11.4194 34 11.4056 34 11.3917C34 11.3779 34 11.3641 34 11.3503C34 11.3365 34 11.3227 34 11.3089C34 11.2952 34 11.2814 34 11.2676C34 11.2539 34 11.2401 34 11.2264C34 11.2126 34 11.1989 34 11.1852C34 11.1715 34 11.1577 34 11.144C34 11.1303 34 11.1166 34 11.103C34 11.0893 34 11.0756 34 11.0619C34 11.0483 34 11.0346 34 11.0209C34 11.0073 34 10.9937 34 10.98C34 10.9664 34 10.9528 34 10.9392C34 10.9256 34 10.912 34 10.8984C34 10.8848 34 10.8712 34 10.8576C34 10.844 34 10.8305 34 10.8169C34 10.8034 34 10.7898 34 10.7763C34 10.7628 34 10.7492 34 10.7357C34 10.7222 34 10.7087 34 10.6952C34 10.6817 34 10.6682 34 10.6547C34 10.6413 34 10.6278 34 10.6143C34 10.6009 34 10.5874 34 10.574C34 10.5606 34 10.5471 34 10.5337C34 10.5203 34 10.5069 34 10.4935C34 10.4801 34 10.4667 34 10.4533C34 10.44 34 10.4266 34 10.4132C34 10.3999 34 10.3865 34 10.3732C34 10.3598 34 10.3465 34 10.3332C34 10.3199 34 10.3066 34 10.2933C34 10.28 34 10.2667 34 10.2534C34 10.2401 34 10.2269 34 10.2136C34 10.2003 34 10.1871 34 10.1739C34 10.1606 34 10.1474 34 10.1342C34 10.121 34 10.1077 34 10.0945C34 10.0813 34 10.0682 34 10.055C34 10.0418 34 10.0286 34 10.0155C34 10.0023 34 9.98917 34 9.97604C34 9.9629 34 9.94977 34 9.93666C34 9.92354 34 9.91043 34 9.89734C34 9.88424 34 9.87115 34 9.85808C34 9.845 34 9.83194 34 9.81888C34 9.80583 34 9.79278 34 9.77975C34 9.76671 34 9.75369 34 9.74068C34 9.72766 34 9.71466 34 9.70167C34 9.68867 34 9.67569 34 9.66272C34 9.64975 34 9.63679 34 9.62384C34 9.61089 34 9.59795 34 9.58502C34 9.57209 34 9.55917 34 9.54626C34 9.53335 34 9.52045 34 9.50756C34 9.49468 34 9.4818 34 9.46893C34 9.45607 34 9.44321 34 9.43037C34 9.41752 34 9.40469 34 9.39186C34 9.37904 34 9.36622 34 9.35342C34 9.34062 34 9.32783 34 9.31505C34 9.30227 34 9.2895 34 9.27674C34 9.26398 34 9.25123 34 9.23849C34 9.22575 34 9.21302 34 9.20031C34 9.18759 34 9.17488 34 9.16219C34 9.14949 34 9.13681 34 9.12414C34 9.11146 34 9.0988 34 9.08615C34 9.0735 34 9.06086 34 9.04823C34 9.0356 34 9.02298 34 9.01037C34 8.99777 34 8.98517 34 8.97258C34 8.96 34 8.94742 34 8.93486C34 8.92229 34 8.90974 34 8.8972C34 8.88466 34 8.87213 34 8.85961C34 8.84709 34 8.83458 34 8.82208C34 8.80959 34 8.7971 34 8.78462C34 8.77215 34 8.75968 34 8.74723C34 8.73478 34 8.72234 34 8.70991C34 8.69748 34 8.68506 34 8.67265C34 8.66024 34 8.64784 34 8.63546C34 8.62307 34 8.6107 34 8.59833C34 8.58597 34 8.57362 34 8.56128C34 8.54894 34 8.53661 34 8.52429C34 8.51197 34 8.49967 34 8.48737C34 8.47508 34 8.46279 34 8.45052C34 8.43825 34 8.42599 34 8.41374C34 8.40149 34 8.38925 34 8.37702C34 8.3648 34 8.35258 34 8.34038C34 8.32817 34 8.31598 34 8.3038C34 8.29162 34 8.27945 34 8.26729C34 8.25514 34 8.24299 34 8.23086C34 8.21872 34 8.2066 34 8.19449C34 8.18238 34 8.17028 34 8.15819C34 8.1461 34 8.13402 34 8.12196C34 8.10989 34 8.09784 34 8.0858C34 8.07376 34 8.06173 34 8.04971C34 8.03769 34 8.02568 34 8.01369C34 8.0017 34 7.98971 34 7.97774C34 7.96577 34 7.95381 34 7.94186C34 7.92992 34 7.91798 34 7.90606C34 7.89413 34 7.88222 34 7.87032C34 7.85842 34 7.84653 34 7.83466C34 7.82278 34 7.81092 34 7.79906C34 7.78721 34 7.77537 34 7.76354C34 7.75171 34 7.7399 34 7.72809C34 7.71629 34 7.70449 34 7.69271C34 7.68093 34 7.66917 34 7.65741C34 7.64565 34 7.63391 34 7.62217C34 7.61044 34 7.59872 34 7.58701C34 7.57531 34 7.56361 34 7.55193C34 7.54024 34 7.52857 34 7.51691C34 7.50525 34 7.4936 34 7.48197C34 7.47033 34 7.45871 34 7.4471C34 7.43549 34 7.42389 34 7.4123C34 7.40071 34 7.38914 34 7.37758C34 7.36602 34 7.35447 34 7.34293C34 7.33139 34 7.31987 34 7.30835C34 7.29684 34 7.28534 34 7.27385C34 7.26237 34 7.25089 34 7.23943C34 7.22796 34 7.21651 34 7.20507C34 7.19364 34 7.18221 34 7.1708C34 7.15938 34 7.14798 34 7.13659C34 7.1252 34 7.11383 34 7.10246C34 7.0911 34 7.07975 34 7.06841C34 7.05707 34 7.04575 34 7.03443C34 7.02312 34 7.01182 34 7.00053C34 6.98924 34 6.97797 34 6.9667C34 6.95544 34 6.94419 34 6.93295C34 6.92172 34 6.91049 34 6.89928C34 6.88807 34 6.87687 34 6.86568C34 6.85449 34 6.84332 34 6.83216C34 6.821 34 6.80985 34 6.79871C34 6.78758 34 6.77645 34 6.76534C34 6.75423 34 6.74313 34 6.73205C34 6.72097 34 6.70989 34 6.69884C34 6.68778 34 6.67673 34 6.6657C34 6.65466 34 6.64364 34 6.63264C34 6.62163 34 6.61063 34 6.59965C34 6.58867 34 6.5777 34 6.56675C34 6.55579 34 6.54485 34 6.53392C34 6.52299 34 6.51207 34 6.50117C34 6.49027 34 6.47938 34 6.4685C34 6.45762 34 6.44676 34 6.43591C34 6.42506 34 6.41422 34 6.40339C34 6.39257 34 6.38176 34 6.37096C34 6.36016 34 6.34938 34 6.3386C34 6.32783 34 6.31707 34 6.30633C34 6.29558 34 6.28485 34 6.27413C34 6.26341 34 6.2527 34 6.24201C34 6.23132 34 6.22064 34 6.20997C34 6.19931 34 6.18865 34 6.17801C34 6.16737 34 6.15675 34 6.14614C34 6.13552 34 6.12492 34 6.11434C34 6.10375 34 6.09318 34 6.08262C34 6.07206 34 6.06152 34 6.05098C34 6.04045 34 6.02993 34 6.01943C34 6.00892 34 5.99843 34 5.98795C34 5.97747 34 5.96701 34 5.95656C34 5.94611 34 5.93567 34 5.92524C34 5.91482 34 5.90441 34 5.89401C34 5.88362 34 5.87323 34 5.86286C34 5.85249 34 5.84214 34 5.83179C34 5.82145 34 5.81112 34 5.80081C34 5.79049 34 5.78019 34 5.7699C34 5.75962 34 5.74934 34 5.73908C34 5.72882 34 5.71858 34 5.70834C34 5.69811 34 5.68789 34 5.67769C34 5.66748 34 5.65729 34 5.64711C34 5.63694 34 5.62677 34 5.61662C34 5.60647 34 5.59634 34 5.58622C34 5.57609 34 5.56599 34 5.55589C34 5.5458 34 5.53572 34 5.52565C34 5.51559 34 5.50553 34 5.4955C34 5.48546 34 5.47543 34 5.46542C34 5.45541 34 5.44542 34 5.43543C34 5.42545 34 5.41548 34 5.40553C34 5.39558 34 5.38564 34 5.37571C34 5.36579 34 5.35587 34 5.34598C34 5.33608 34 5.3262 34 5.31633C34 5.30646 34 5.2966 34 5.28676C34 5.27692 34 5.26709 34 5.25728C34 5.24747 34 5.23767 34 5.22789C34 5.2181 34 5.20833 34 5.19858C34 5.18882 34 5.17908 34 5.16935C34 5.15963 34 5.14991 34 5.14022C34 5.13052 34 5.12083 34 5.11117C34 5.1015 34 5.09184 34 5.0822C34 5.07256 34 5.06293 34 5.05332C34 5.04371 34 5.03411 34 5.02453C34 5.01495 34 5.00538 34 4.99582H32ZM2 38.8V5H0V38.8H2ZM29 2C29.9711 2 30.5988 2.00212 31.0613 2.06431C31.495 2.12262 31.631 2.21677 31.7071 2.29289L33.1213 0.87868C32.6117 0.369017 31.9833 0.170272 31.3278 0.0821405C30.701 -0.00212371 29.9145 0 29 0V2ZM34 4.99582C34 4.0827 34.0021 3.29715 33.9178 2.671C33.8296 2.01587 33.6308 1.38812 33.1213 0.87868L31.7071 2.29289C31.7835 2.36924 31.8775 2.5051 31.9357 2.93783C31.9979 3.39954 32 4.02611 32 4.99582H34ZM5 0C4.08546 0 3.29896 -0.00212371 2.67221 0.0821405C2.01669 0.170272 1.38834 0.369017 0.87868 0.87868L2.29289 2.29289C2.36902 2.21677 2.50496 2.12262 2.9387 2.06431C3.40121 2.00212 4.02892 2 5 2V0ZM2 5C2 4.02892 2.00212 3.40121 2.06431 2.9387C2.12262 2.50496 2.21677 2.36902 2.29289 2.29289L0.87868 0.87868C0.369018 1.38834 0.170272 2.01669 0.0821406 2.67221C-0.00212371 3.29896 0 4.08546 0 5H2Z" fill="white"/>
<path d="M29 1H10.1429V34.6H29C30.8856 34.6 31.8285 34.6 32.4142 34.0142C33 33.4285 33 32.486 33 30.6012V4.99218C33 3.11178 33 2.17157 32.4142 1.58579C31.8285 1 30.8856 1 29 1Z" stroke="white" stroke-width="2"/>
<path d="M33 44.0002C33.5523 44.0002 34 43.5525 34 43.0002C34 42.4479 33.5523 42.0002 33 42.0002V44.0002ZM2.09202 42.7822L2.54601 41.8912L2.09202 42.7822ZM31.4122 34.7759L31.2204 33.7945L31.4122 34.7759ZM32.5699 34.4639L33.1397 35.2856L32.5699 34.4639ZM32.9158 34.0438L33.8316 34.4455L32.9158 34.0438ZM2.09202 34.8182L2.54601 35.7092L2.09202 34.8182ZM2 39.8002V37.8002H0V39.8002H2ZM33 42.0002H4.2V44.0002H33V42.0002ZM4.2 35.6002H25.9553V33.6002H4.2V35.6002ZM33 43.0002C33 42.0002 33.0003 42.0002 33.0007 42.0002C33.0007 42.0002 33.001 42.0002 33.0012 42.0002C33.0015 42.0002 33.0017 42.0002 33.0019 42.0002C33.0021 42.0002 33.0021 42.0002 33.0017 42.0002C33.0009 42.0002 32.9988 42.0002 32.9955 42.0001C32.9887 42.0001 32.9769 41.9999 32.9603 41.9995C32.9271 41.9987 32.8751 41.997 32.8069 41.9934C32.6702 41.9862 32.4703 41.9716 32.2287 41.942C31.7403 41.8822 31.1069 41.7641 30.4878 41.5366C29.8639 41.3073 29.3099 40.9872 28.9193 40.5565C28.5481 40.1473 28.2857 39.5984 28.2857 38.8002H26.2857C26.2857 40.102 26.7376 41.1281 27.4379 41.9002C28.1187 42.6507 28.9932 43.1181 29.7979 43.4138C30.6074 43.7113 31.4025 43.8557 31.9856 43.9272C32.2797 43.9632 32.5262 43.9814 32.702 43.9906C32.7901 43.9953 32.8608 43.9976 32.9113 43.9989C32.9366 43.9995 32.9569 43.9998 32.9718 44C32.9792 44.0001 32.9853 44.0001 32.99 44.0002C32.9924 44.0002 32.9944 44.0002 32.9961 44.0002C32.9969 44.0002 32.9976 44.0002 32.9983 44.0002C32.9986 44.0002 32.9991 44.0002 32.9992 44.0002C32.9996 44.0002 33 44.0002 33 43.0002ZM28.2857 38.8002C28.2857 37.7811 28.7153 37.1384 29.3191 36.6805C29.9648 36.1909 30.8255 35.9095 31.604 35.7574L31.2204 33.7945C30.3079 33.9728 29.1053 34.3326 28.1106 35.0869C27.0739 35.8731 26.2857 37.0773 26.2857 38.8002H28.2857ZM34 32.9995C34 32.9949 34 32.9903 34 32.9857C34 32.9811 34 32.9764 34 32.9718C34 32.9672 34 32.9626 34 32.958C34 32.9534 34 32.9488 34 32.9442C34 32.9396 34 32.935 34 32.9304C34 32.9258 34 32.9212 34 32.9166C34 32.912 34 32.9075 34 32.9029C34 32.8983 34 32.8937 34 32.8891C34 32.8845 34 32.88 34 32.8754C34 32.8708 34 32.8662 34 32.8617C34 32.8571 34 32.8525 34 32.8479C34 32.8434 34 32.8388 34 32.8342C34 32.8297 34 32.8251 34 32.8206C34 32.816 34 32.8115 34 32.8069C34 32.8023 34 32.7978 34 32.7932C34 32.7887 34 32.7841 34 32.7796C34 32.7751 34 32.7705 34 32.766C34 32.7614 34 32.7569 34 32.7524C34 32.7478 34 32.7433 34 32.7388C34 32.7342 34 32.7297 34 32.7252C34 32.7206 34 32.7161 34 32.7116C34 32.7071 34 32.7026 34 32.698C34 32.6935 34 32.689 34 32.6845C34 32.68 34 32.6755 34 32.6709C34 32.6664 34 32.6619 34 32.6574C34 32.6529 34 32.6484 34 32.6439C34 32.6394 34 32.6349 34 32.6304C34 32.6259 34 32.6214 34 32.6169C34 32.6124 34 32.608 34 32.6035C34 32.599 34 32.5945 34 32.59C34 32.5855 34 32.581 34 32.5766C34 32.5721 34 32.5676 34 32.5631C34 32.5586 34 32.5542 34 32.5497C34 32.5452 34 32.5408 34 32.5363C34 32.5318 34 32.5274 34 32.5229C34 32.5184 34 32.514 34 32.5095C34 32.505 34 32.5006 34 32.4961C34 32.4917 34 32.4872 34 32.4828C34 32.4783 34 32.4739 34 32.4694C34 32.465 34 32.4605 34 32.4561C34 32.4516 34 32.4472 34 32.4428C34 32.4383 34 32.4339 34 32.4294C34 32.425 34 32.4206 34 32.4161C34 32.4117 34 32.4073 34 32.4028C34 32.3984 34 32.394 34 32.3896C34 32.3851 34 32.3807 34 32.3763C34 32.3719 34 32.3675 34 32.363C34 32.3586 34 32.3542 34 32.3498C34 32.3454 34 32.341 34 32.3366C34 32.3322 34 32.3277 34 32.3233C34 32.3189 34 32.3145 34 32.3101C34 32.3057 34 32.3013 34 32.2969C34 32.2925 34 32.2881 34 32.2837C34 32.2793 34 32.2749 34 32.2706C34 32.2662 34 32.2618 34 32.2574C34 32.253 34 32.2486 34 32.2442C34 32.2398 34 32.2355 34 32.2311C34 32.2267 34 32.2223 34 32.2179C34 32.2136 34 32.2092 34 32.2048C34 32.2004 34 32.1961 34 32.1917C34 32.1873 34 32.183 34 32.1786C34 32.1742 34 32.1699 34 32.1655C34 32.1611 34 32.1568 34 32.1524C34 32.148 34 32.1437 34 32.1393C34 32.135 34 32.1306 34 32.1263C34 32.1219 34 32.1176 34 32.1132C34 32.1089 34 32.1045 34 32.1002C34 32.0958 34 32.0915 34 32.0871C34 32.0828 34 32.0784 34 32.0741C34 32.0698 34 32.0654 34 32.0611C34 32.0567 34 32.0524 34 32.0481C34 32.0437 34 32.0394 34 32.0351C34 32.0307 34 32.0264 34 32.0221C34 32.0178 34 32.0134 34 32.0091C34 32.0048 34 32.0005 34 31.9961C34 31.9918 34 31.9875 34 31.9832C34 31.9789 34 31.9745 34 31.9702C34 31.9659 34 31.9616 34 31.9573C34 31.953 34 31.9487 34 31.9443C34 31.94 34 31.9357 34 31.9314C34 31.9271 34 31.9228 34 31.9185C34 31.9142 34 31.9099 34 31.9056C34 31.9013 34 31.897 34 31.8927C34 31.8884 34 31.8841 34 31.8798C34 31.8755 34 31.8712 34 31.8669C34 31.8626 34 31.8583 34 31.854C34 31.8498 34 31.8455 34 31.8412C34 31.8369 34 31.8326 34 31.8283C34 31.824 34 31.8198 34 31.8155C34 31.8112 34 31.8069 34 31.8026C34 31.7984 34 31.7941 34 31.7898C34 31.7855 34 31.7813 34 31.777C34 31.7727 34 31.7684 34 31.7642C34 31.7599 34 31.7556 34 31.7514C34 31.7471 34 31.7428 34 31.7386C34 31.7343 34 31.73 34 31.7258C34 31.7215 34 31.7172 34 31.713C34 31.7087 34 31.7045 34 31.7002C34 31.6959 34 31.6917 34 31.6874C34 31.6832 34 31.6789 34 31.6747C34 31.6704 34 31.6662 34 31.6619C34 31.6577 34 31.6534 34 31.6492C34 31.6449 34 31.6407 34 31.6364C34 31.6322 34 31.6279 34 31.6237C34 31.6195 34 31.6152 34 31.611C34 31.6067 34 31.6025 34 31.5983C34 31.594 34 31.5898 34 31.5855C34 31.5813 34 31.5771 34 31.5728C34 31.5686 34 31.5644 34 31.5601C34 31.5559 34 31.5517 34 31.5474C34 31.5432 34 31.539 34 31.5348C34 31.5305 34 31.5263 34 31.5221C34 31.5179 34 31.5136 34 31.5094C34 31.5052 34 31.501 34 31.4967C34 31.4925 34 31.4883 34 31.4841C34 31.4799 34 31.4757 34 31.4714C34 31.4672 34 31.463 34 31.4588C34 31.4546 34 31.4504 34 31.4461C34 31.4419 34 31.4377 34 31.4335C34 31.4293 34 31.4251 34 31.4209C34 31.4167 34 31.4125 34 31.4083C34 31.4041 34 31.3999 34 31.3956C34 31.3914 34 31.3872 34 31.383C34 31.3788 34 31.3746 34 31.3704C34 31.3662 34 31.362 34 31.3578C34 31.3536 34 31.3494 34 31.3452C34 31.341 34 31.3368 34 31.3327C34 31.3285 34 31.3243 34 31.3201C34 31.3159 34 31.3117 34 31.3075C34 31.3033 34 31.2991 34 31.2949C34 31.2907 34 31.2865 34 31.2824C34 31.2782 34 31.274 34 31.2698C34 31.2656 34 31.2614 34 31.2572C34 31.2531 34 31.2489 34 31.2447C34 31.2405 34 31.2363 34 31.2321C34 31.228 34 31.2238 34 31.2196C34 31.2154 34 31.2112 34 31.2071C34 31.2029 34 31.1987 34 31.1945C34 31.1903 34 31.1862 34 31.182C34 31.1778 34 31.1736 34 31.1695C34 31.1653 34 31.1611 34 31.157C34 31.1528 34 31.1486 34 31.1444C34 31.1403 34 31.1361 34 31.1319C34 31.1278 34 31.1236 34 31.1194C34 31.1153 34 31.1111 34 31.1069C34 31.1028 34 31.0986 34 31.0944C34 31.0903 34 31.0861 34 31.0819C34 31.0778 34 31.0736 34 31.0694C34 31.0653 34 31.0611 34 31.057C34 31.0528 34 31.0486 34 31.0445C34 31.0403 34 31.0362 34 31.032C34 31.0278 34 31.0237 34 31.0195C34 31.0154 34 31.0112 34 31.0071C34 31.0029 34 30.9987 34 30.9946C34 30.9904 34 30.9863 34 30.9821C34 30.978 34 30.9738 34 30.9697C34 30.9655 34 30.9614 34 30.9572C34 30.9531 34 30.9489 34 30.9448C34 30.9406 34 30.9365 34 30.9323C34 30.9282 34 30.924 34 30.9199C34 30.9157 34 30.9116 34 30.9074C34 30.9033 34 30.8991 34 30.895C34 30.8908 34 30.8867 34 30.8825C34 30.8784 34 30.8742 34 30.8701C34 30.866 34 30.8618 34 30.8577C34 30.8535 34 30.8494 34 30.8452C34 30.8411 34 30.837 34 30.8328C34 30.8287 34 30.8245 34 30.8204C34 30.8162 34 30.8121 34 30.808C34 30.8038 34 30.7997 34 30.7955C34 30.7914 34 30.7873 34 30.7831C34 30.779 34 30.7748 34 30.7707C34 30.7666 34 30.7624 34 30.7583C34 30.7542 34 30.75 34 30.7459C34 30.7417 34 30.7376 34 30.7335C34 30.7293 34 30.7252 34 30.7211C34 30.7169 34 30.7128 34 30.7087C34 30.7045 34 30.7004 34 30.6963C34 30.6921 34 30.688 34 30.6839C34 30.6797 34 30.6756 34 30.6715C34 30.6673 34 30.6632 34 30.6591C34 30.6549 34 30.6508 34 30.6467C34 30.6425 34 30.6384 34 30.6343C34 30.6301 34 30.626 34 30.6219C34 30.6177 34 30.6136 34 30.6095C34 30.6053 34 30.6012 34 30.5971C34 30.593 34 30.5888 34 30.5847C34 30.5806 34 30.5764 34 30.5723C34 30.5682 34 30.564 34 30.5599C34 30.5558 34 30.5517 34 30.5475C34 30.5434 34 30.5393 34 30.5351C34 30.531 34 30.5269 34 30.5228C34 30.5186 34 30.5145 34 30.5104C34 30.5062 34 30.5021 34 30.498C34 30.4939 34 30.4897 34 30.4856C34 30.4815 34 30.4773 34 30.4732C34 30.4691 34 30.465 34 30.4608C34 30.4567 34 30.4526 34 30.4485C34 30.4443 34 30.4402 34 30.4361C34 30.4319 34 30.4278 34 30.4237C34 30.4196 34 30.4154 34 30.4113C34 30.4072 34 30.4031 34 30.3989C34 30.3948 34 30.3907 34 30.3865C34 30.3824 34 30.3783 34 30.3742C34 30.37 34 30.3659 34 30.3618C34 30.3577 34 30.3535 34 30.3494C34 30.3453 34 30.3411 34 30.337C34 30.3329 34 30.3288 34 30.3246C34 30.3205 34 30.3164 34 30.3122C34 30.3081 34 30.304 34 30.2999C34 30.2957 34 30.2916 34 30.2875C34 30.2833 34 30.2792 34 30.2751C34 30.271 34 30.2668 34 30.2627C34 30.2586 34 30.2544 34 30.2503C34 30.2462 34 30.2421 34 30.2379C34 30.2338 34 30.2297 34 30.2255C34 30.2214 34 30.2173 34 30.2132C34 30.209 34 30.2049 34 30.2008C34 30.1966 34 30.1925 34 30.1884C34 30.1842 34 30.1801 34 30.176C34 30.1718 34 30.1677 34 30.1636C34 30.1595 34 30.1553 34 30.1512C34 30.1471 34 30.1429 34 30.1388C34 30.1347 34 30.1305 34 30.1264C34 30.1223 34 30.1181 34 30.114C34 30.1099 34 30.1057 34 30.1016C34 30.0975 34 30.0933 34 30.0892C34 30.085 34 30.0809 34 30.0768C34 30.0726 34 30.0685 34 30.0644C34 30.0602 34 30.0561 34 30.052C34 30.0478 34 30.0437 34 30.0395C34 30.0354 34 30.0313 34 30.0271C34 30.023 34 30.0189 34 30.0147C34 30.0106 34 30.0064 34 30.0023C34 29.9982 34 29.994 34 29.9899C34 29.9857 34 29.9816 34 29.9775C34 29.9733 34 29.9692 34 29.965C34 29.9609 34 29.9567 34 29.9526C34 29.9485 34 29.9443 34 29.9402C34 29.936 34 29.9319 34 29.9277C34 29.9236 34 29.9194 34 29.9153C34 29.9112 34 29.907 34 29.9029C34 29.8987 34 29.8946 34 29.8904C34 29.8863 34 29.8821 34 29.878C34 29.8738 34 29.8697 34 29.8655C34 29.8614 34 29.8572 34 29.8531C34 29.8489 34 29.8448 34 29.8406C34 29.8365 34 29.8323 34 29.8282C34 29.824 34 29.8199 34 29.8157C34 29.8116 34 29.8074 34 29.8032C34 29.7991 34 29.7949 34 29.7908C34 29.7866 34 29.7825 34 29.7783C34 29.7741 34 29.77 34 29.7658C34 29.7617 34 29.7575 34 29.7534C34 29.7492 34 29.745 34 29.7409C34 29.7367 34 29.7325 34 29.7284C34 29.7242 34 29.7201 34 29.7159C34 29.7117 34 29.7076 34 29.7034C34 29.6992 34 29.6951 34 29.6909C34 29.6867 34 29.6826 34 29.6784C34 29.6742 34 29.6701 34 29.6659C34 29.6617 34 29.6576 34 29.6534C34 29.6492 34 29.645 34 29.6409C34 29.6367 34 29.6325 34 29.6283C34 29.6242 34 29.62 34 29.6158C34 29.6116 34 29.6075 34 29.6033C34 29.5991 34 29.5949 34 29.5908C34 29.5866 34 29.5824 34 29.5782C34 29.574 34 29.5699 34 29.5657C34 29.5615 34 29.5573 34 29.5531C34 29.5489 34 29.5448 34 29.5406C34 29.5364 34 29.5322 34 29.528C34 29.5238 34 29.5196 34 29.5155C34 29.5113 34 29.5071 34 29.5029C34 29.4987 34 29.4945 34 29.4903C34 29.4861 34 29.4819 34 29.4777C34 29.4735 34 29.4694 34 29.4652C34 29.461 34 29.4568 34 29.4526C34 29.4484 34 29.4442 34 29.44C34 29.4358 34 29.4316 34 29.4274C34 29.4232 34 29.419 34 29.4148C34 29.4106 34 29.4064 34 29.4022C34 29.3979 34 29.3937 34 29.3895C34 29.3853 34 29.3811 34 29.3769C34 29.3727 34 29.3685 34 29.3643C34 29.3601 34 29.3559 34 29.3516C34 29.3474 34 29.3432 34 29.339C34 29.3348 34 29.3306 34 29.3264C34 29.3221 34 29.3179 34 29.3137C34 29.3095 34 29.3053 34 29.301C34 29.2968 34 29.2926 34 29.2884C34 29.2842 34 29.2799 34 29.2757C34 29.2715 34 29.2673 34 29.263C34 29.2588 34 29.2546 34 29.2503C34 29.2461 34 29.2419 34 29.2376C34 29.2334 34 29.2292 34 29.2249C34 29.2207 34 29.2165 34 29.2122C34 29.208 34 29.2038 34 29.1995C34 29.1953 34 29.191 34 29.1868C34 29.1826 34 29.1783 34 29.1741C34 29.1698 34 29.1656 34 29.1613C34 29.1571 34 29.1529 34 29.1486C34 29.1444 34 29.1401 34 29.1359C34 29.1316 34 29.1274 34 29.1231C34 29.1188 34 29.1146 34 29.1103C34 29.1061 34 29.1018 34 29.0976C34 29.0933 34 29.089 34 29.0848C34 29.0805 34 29.0763 34 29.072C34 29.0677 34 29.0635 34 29.0592C34 29.0549 34 29.0507 34 29.0464C34 29.0421 34 29.0379 34 29.0336C34 29.0293 34 29.025 34 29.0208C34 29.0165 34 29.0122 34 29.008C34 29.0037 34 28.9994 34 28.9951C34 28.9908 34 28.9866 34 28.9823C34 28.978 34 28.9737 34 28.9694C34 28.9651 34 28.9609 34 28.9566C34 28.9523 34 28.948 34 28.9437C34 28.9394 34 28.9351 34 28.9308C34 28.9265 34 28.9222 34 28.9179C34 28.9136 34 28.9093 34 28.9051C34 28.9008 34 28.8965 34 28.8922C34 28.8878 34 28.8835 34 28.8792C34 28.8749 34 28.8706 34 28.8663C34 28.862 34 28.8577 34 28.8534C34 28.8491 34 28.8448 34 28.8405C34 28.8361 34 28.8318 34 28.8275C34 28.8232 34 28.8189 34 28.8146C34 28.8102 34 28.8059 34 28.8016C34 28.7973 34 28.793 34 28.7886C34 28.7843 34 28.78 34 28.7756C34 28.7713 34 28.767 34 28.7627C34 28.7583 34 28.754 34 28.7497C34 28.7453 34 28.741 34 28.7366C34 28.7323 34 28.728 34 28.7236C34 28.7193 34 28.7149 34 28.7106C34 28.7063 34 28.7019 34 28.6976C34 28.6932 34 28.6889 34 28.6845C34 28.6802 34 28.6758 34 28.6715C34 28.6671 34 28.6627 34 28.6584C34 28.654 34 28.6497 34 28.6453C34 28.6409 34 28.6366 34 28.6322C34 28.6279 34 28.6235 34 28.6191C34 28.6147 34 28.6104 34 28.606C34 28.6016 34 28.5973 34 28.5929C34 28.5885 34 28.5841 34 28.5798C34 28.5754 34 28.571 34 28.5666C34 28.5622 34 28.5579 34 28.5535C34 28.5491 34 28.5447 34 28.5403C34 28.5359 34 28.5315 34 28.5271C34 28.5227 34 28.5183 34 28.514C34 28.5096 34 28.5052 34 28.5008C34 28.4964 34 28.492 34 28.4876C34 28.4832 34 28.4787 34 28.4743C34 28.4699 34 28.4655 34 28.4611C34 28.4567 34 28.4523 34 28.4479C34 28.4435 34 28.439 34 28.4346C34 28.4302 34 28.4258 34 28.4214C34 28.4169 34 28.4125 34 28.4081C34 28.4037 34 28.3992 34 28.3948C34 28.3904 34 28.386 34 28.3815C34 28.3771 34 28.3727 34 28.3682C34 28.3638 34 28.3593 34 28.3549C34 28.3505 34 28.346 34 28.3416C34 28.3371 34 28.3327 34 28.3282C34 28.3238 34 28.3193 34 28.3149C34 28.3104 34 28.306 34 28.3015C34 28.2971 34 28.2926 34 28.2881C34 28.2837 34 28.2792 34 28.2748C34 28.2703 34 28.2658 34 28.2614C34 28.2569 34 28.2524 34 28.2479C34 28.2435 34 28.239 34 28.2345C34 28.23 34 28.2256 34 28.2211C34 28.2166 34 28.2121 34 28.2076C34 28.2031 34 28.1987 34 28.1942C34 28.1897 34 28.1852 34 28.1807C34 28.1762 34 28.1717 34 28.1672C34 28.1627 34 28.1582 34 28.1537C34 28.1492 34 28.1447 34 28.1402C34 28.1357 34 28.1312 34 28.1267C34 28.1222 34 28.1176 34 28.1131C34 28.1086 34 28.1041 34 28.0996C34 28.0951 34 28.0905 34 28.086C34 28.0815 34 28.077 34 28.0724C34 28.0679 34 28.0634 34 28.0588C34 28.0543 34 28.0498 34 28.0452C34 28.0407 34 28.0362 34 28.0316C34 28.0271 34 28.0225 34 28.018C34 28.0134 34 28.0089 34 28.0043C34 27.9998 34 27.9952 34 27.9907C34 27.9861 34 27.9816 34 27.977C34 27.9725 34 27.9679 34 27.9633C34 27.9588 34 27.9542 34 27.9496C34 27.9451 34 27.9405 34 27.9359C34 27.9313 34 27.9268 34 27.9222C34 27.9176 34 27.913 34 27.9085C34 27.9039 34 27.8993 34 27.8947C34 27.8901 34 27.8855 34 27.8809C34 27.8763 34 27.8717 34 27.8671C34 27.8626 34 27.858 34 27.8534C34 27.8487 34 27.8441 34 27.8395C34 27.8349 34 27.8303 34 27.8257C34 27.8211 34 27.8165 34 27.8119C34 27.8073 34 27.8026 34 27.798C34 27.7934 34 27.7888 34 27.7841C34 27.7795 34 27.7749 34 27.7703C34 27.7656 34 27.761 34 27.7564C34 27.7517 34 27.7471 34 27.7424C34 27.7378 34 27.7332 34 27.7285C34 27.7239 34 27.7192 34 27.7146C34 27.7099 34 27.7053 34 27.7006C34 27.696 34 27.6913 34 27.6866C34 27.682 34 27.6773 34 27.6727C34 27.668 34 27.6633 34 27.6586C34 27.654 34 27.6493 34 27.6446C34 27.64 34 27.6353 34 27.6306C34 27.6259 34 27.6212 34 27.6165C34 27.6119 34 27.6072 34 27.6025C34 27.5978 34 27.5931 34 27.5884C34 27.5837 34 27.579 34 27.5743C34 27.5696 34 27.5649 34 27.5602C34 27.5555 34 27.5508 34 27.546C34 27.5413 34 27.5366 34 27.5319C34 27.5272 34 27.5225 34 27.5177C34 27.513 34 27.5083 34 27.5036C34 27.4988 34 27.4941 34 27.4894C34 27.4846 34 27.4799 34 27.4752C34 27.4704 34 27.4657 34 27.4609C34 27.4562 34 27.4514 34 27.4467C34 27.4419 34 27.4372 34 27.4324C34 27.4277 34 27.4229 34 27.4182C34 27.4134 34 27.4086 34 27.4039C34 27.3991 34 27.3943 34 27.3895C34 27.3848 34 27.38 34 27.3752C34 27.3704 34 27.3657 34 27.3609C34 27.3561 34 27.3513 34 27.3465C34 27.3417 34 27.3369 34 27.3321C34 27.3273 34 27.3225 34 27.3177C34 27.3129 34 27.3081 34 27.3033C34 27.2985 34 27.2937 34 27.2889C34 27.2841 34 27.2793 34 27.2745C34 27.2696 34 27.2648 34 27.26C34 27.2552 34 27.2503 34 27.2455C34 27.2407 34 27.2359 34 27.231C34 27.2262 34 27.2213 34 27.2165C34 27.2117 34 27.2068 34 27.202C34 27.1971 34 27.1923 34 27.1874C34 27.1826 34 27.1777 34 27.1729C34 27.168 34 27.1631 34 27.1583C34 27.1534 34 27.1485 34 27.1437C34 27.1388 34 27.1339 34 27.129C34 27.1242 34 27.1193 34 27.1144C34 27.1095 34 27.1046 34 27.0997C34 27.0949 34 27.09 34 27.0851C34 27.0802 34 27.0753 34 27.0704C34 27.0655 34 27.0606 34 27.0557C34 27.0507 34 27.0458 34 27.0409C34 27.036 34 27.0311 34 27.0262C34 27.0213 34 27.0163 34 27.0114C34 27.0065 34 27.0016 34 26.9966C34 26.9917 34 26.9868 34 26.9818C34 26.9769 34 26.9719 34 26.967C34 26.962 34 26.9571 34 26.9521C34 26.9472 34 26.9422 34 26.9373C34 26.9323 34 26.9274 34 26.9224C34 26.9174 34 26.9125 34 26.9075C34 26.9025 34 26.8976 34 26.8926C34 26.8876 34 26.8826 34 26.8776C34 26.8727 34 26.8677 34 26.8627C34 26.8577 34 26.8527 34 26.8477C34 26.8427 34 26.8377 34 26.8327C34 26.8277 34 26.8227 34 26.8177C34 26.8127 34 26.8077 34 26.8027C34 26.7976 34 26.7926 34 26.7876C34 26.7826 34 26.7776 34 26.7725C34 26.7675 34 26.7625 34 26.7574C34 26.7524 34 26.7474 34 26.7423C34 26.7373 34 26.7322 34 26.7272C34 26.7221 34 26.7171 34 26.712C34 26.707 34 26.7019 34 26.6968C34 26.6918 34 26.6867 34 26.6817C34 26.6766 34 26.6715 34 26.6664C34 26.6614 34 26.6563 34 26.6512C34 26.6461 34 26.641 34 26.6359C34 26.6309 34 26.6258 34 26.6207C34 26.6156 34 26.6105 34 26.6054C34 26.6003 34 26.5952 34 26.5901C34 26.5849 34 26.5798 34 26.5747C34 26.5696 34 26.5645 34 26.5594C34 26.5542 34 26.5491 34 26.544C34 26.5388 34 26.5337 34 26.5286C34 26.5234 34 26.5183 34 26.5131C34 26.508 34 26.5029 34 26.4977C34 26.4926 34 26.4874 34 26.4822C34 26.4771 34 26.4719 34 26.4668C34 26.4616 34 26.4564 34 26.4513C34 26.4461 34 26.4409 34 26.4357C34 26.4305 34 26.4254 34 26.4202C34 26.415 34 26.4098 34 26.4046C34 26.3994 34 26.3942 34 26.389C34 26.3838 34 26.3786 34 26.3734C34 26.3682 34 26.363 34 26.3578C34 26.3525 34 26.3473 34 26.3421C34 26.3369 34 26.3317 34 26.3264C34 26.3212 34 26.316 34 26.3107C34 26.3055 34 26.3002 34 26.295C34 26.2898 34 26.2845 34 26.2793C34 26.274 34 26.2687 34 26.2635C34 26.2582 34 26.253 34 26.2477C34 26.2424 34 26.2372 34 26.2319C34 26.2266 34 26.2213 34 26.2161C34 26.2108 34 26.2055 34 26.2002H32C32 26.2055 32 26.2108 32 26.2161C32 26.2213 32 26.2266 32 26.2319C32 26.2372 32 26.2424 32 26.2477C32 26.253 32 26.2582 32 26.2635C32 26.2687 32 26.274 32 26.2793C32 26.2845 32 26.2898 32 26.295C32 26.3002 32 26.3055 32 26.3107C32 26.316 32 26.3212 32 26.3264C32 26.3317 32 26.3369 32 26.3421C32 26.3473 32 26.3525 32 26.3578C32 26.363 32 26.3682 32 26.3734C32 26.3786 32 26.3838 32 26.389C32 26.3942 32 26.3994 32 26.4046C32 26.4098 32 26.415 32 26.4202C32 26.4254 32 26.4305 32 26.4357C32 26.4409 32 26.4461 32 26.4513C32 26.4564 32 26.4616 32 26.4668C32 26.4719 32 26.4771 32 26.4822C32 26.4874 32 26.4926 32 26.4977C32 26.5029 32 26.508 32 26.5131C32 26.5183 32 26.5234 32 26.5286C32 26.5337 32 26.5388 32 26.544C32 26.5491 32 26.5542 32 26.5594C32 26.5645 32 26.5696 32 26.5747C32 26.5798 32 26.5849 32 26.5901C32 26.5952 32 26.6003 32 26.6054C32 26.6105 32 26.6156 32 26.6207C32 26.6258 32 26.6309 32 26.6359C32 26.641 32 26.6461 32 26.6512C32 26.6563 32 26.6614 32 26.6664C32 26.6715 32 26.6766 32 26.6817C32 26.6867 32 26.6918 32 26.6968C32 26.7019 32 26.707 32 26.712C32 26.7171 32 26.7221 32 26.7272C32 26.7322 32 26.7373 32 26.7423C32 26.7474 32 26.7524 32 26.7574C32 26.7625 32 26.7675 32 26.7725C32 26.7776 32 26.7826 32 26.7876C32 26.7926 32 26.7976 32 26.8027C32 26.8077 32 26.8127 32 26.8177C32 26.8227 32 26.8277 32 26.8327C32 26.8377 32 26.8427 32 26.8477C32 26.8527 32 26.8577 32 26.8627C32 26.8677 32 26.8727 32 26.8776C32 26.8826 32 26.8876 32 26.8926C32 26.8976 32 26.9025 32 26.9075C32 26.9125 32 26.9174 32 26.9224C32 26.9274 32 26.9323 32 26.9373C32 26.9422 32 26.9472 32 26.9521C32 26.9571 32 26.962 32 26.967C32 26.9719 32 26.9769 32 26.9818C32 26.9868 32 26.9917 32 26.9966C32 27.0016 32 27.0065 32 27.0114C32 27.0163 32 27.0213 32 27.0262C32 27.0311 32 27.036 32 27.0409C32 27.0458 32 27.0507 32 27.0557C32 27.0606 32 27.0655 32 27.0704C32 27.0753 32 27.0802 32 27.0851C32 27.09 32 27.0949 32 27.0997C32 27.1046 32 27.1095 32 27.1144C32 27.1193 32 27.1242 32 27.129C32 27.1339 32 27.1388 32 27.1437C32 27.1485 32 27.1534 32 27.1583C32 27.1631 32 27.168 32 27.1729C32 27.1777 32 27.1826 32 27.1874C32 27.1923 32 27.1971 32 27.202C32 27.2068 32 27.2117 32 27.2165C32 27.2213 32 27.2262 32 27.231C32 27.2359 32 27.2407 32 27.2455C32 27.2503 32 27.2552 32 27.26C32 27.2648 32 27.2696 32 27.2745C32 27.2793 32 27.2841 32 27.2889C32 27.2937 32 27.2985 32 27.3033C32 27.3081 32 27.3129 32 27.3177C32 27.3225 32 27.3273 32 27.3321C32 27.3369 32 27.3417 32 27.3465C32 27.3513 32 27.3561 32 27.3609C32 27.3657 32 27.3704 32 27.3752C32 27.38 32 27.3848 32 27.3895C32 27.3943 32 27.3991 32 27.4039C32 27.4086 32 27.4134 32 27.4182C32 27.4229 32 27.4277 32 27.4324C32 27.4372 32 27.4419 32 27.4467C32 27.4514 32 27.4562 32 27.4609C32 27.4657 32 27.4704 32 27.4752C32 27.4799 32 27.4846 32 27.4894C32 27.4941 32 27.4988 32 27.5036C32 27.5083 32 27.513 32 27.5177C32 27.5225 32 27.5272 32 27.5319C32 27.5366 32 27.5413 32 27.546C32 27.5508 32 27.5555 32 27.5602C32 27.5649 32 27.5696 32 27.5743C32 27.579 32 27.5837 32 27.5884C32 27.5931 32 27.5978 32 27.6025C32 27.6072 32 27.6119 32 27.6165C32 27.6212 32 27.6259 32 27.6306C32 27.6353 32 27.64 32 27.6446C32 27.6493 32 27.654 32 27.6586C32 27.6633 32 27.668 32 27.6727C32 27.6773 32 27.682 32 27.6866C32 27.6913 32 27.696 32 27.7006C32 27.7053 32 27.7099 32 27.7146C32 27.7192 32 27.7239 32 27.7285C32 27.7332 32 27.7378 32 27.7424C32 27.7471 32 27.7517 32 27.7564C32 27.761 32 27.7656 32 27.7703C32 27.7749 32 27.7795 32 27.7841C32 27.7888 32 27.7934 32 27.798C32 27.8026 32 27.8073 32 27.8119C32 27.8165 32 27.8211 32 27.8257C32 27.8303 32 27.8349 32 27.8395C32 27.8441 32 27.8487 32 27.8534C32 27.858 32 27.8626 32 27.8671C32 27.8717 32 27.8763 32 27.8809C32 27.8855 32 27.8901 32 27.8947C32 27.8993 32 27.9039 32 27.9085C32 27.913 32 27.9176 32 27.9222C32 27.9268 32 27.9313 32 27.9359C32 27.9405 32 27.9451 32 27.9496C32 27.9542 32 27.9588 32 27.9633C32 27.9679 32 27.9725 32 27.977C32 27.9816 32 27.9861 32 27.9907C32 27.9952 32 27.9998 32 28.0043C32 28.0089 32 28.0134 32 28.018C32 28.0225 32 28.0271 32 28.0316C32 28.0362 32 28.0407 32 28.0452C32 28.0498 32 28.0543 32 28.0588C32 28.0634 32 28.0679 32 28.0724C32 28.077 32 28.0815 32 28.086C32 28.0905 32 28.0951 32 28.0996C32 28.1041 32 28.1086 32 28.1131C32 28.1176 32 28.1222 32 28.1267C32 28.1312 32 28.1357 32 28.1402C32 28.1447 32 28.1492 32 28.1537C32 28.1582 32 28.1627 32 28.1672C32 28.1717 32 28.1762 32 28.1807C32 28.1852 32 28.1897 32 28.1942C32 28.1987 32 28.2031 32 28.2076C32 28.2121 32 28.2166 32 28.2211C32 28.2256 32 28.23 32 28.2345C32 28.239 32 28.2435 32 28.2479C32 28.2524 32 28.2569 32 28.2614C32 28.2658 32 28.2703 32 28.2748C32 28.2792 32 28.2837 32 28.2881C32 28.2926 32 28.2971 32 28.3015C32 28.306 32 28.3104 32 28.3149C32 28.3193 32 28.3238 32 28.3282C32 28.3327 32 28.3371 32 28.3416C32 28.346 32 28.3505 32 28.3549C32 28.3593 32 28.3638 32 28.3682C32 28.3727 32 28.3771 32 28.3815C32 28.386 32 28.3904 32 28.3948C32 28.3992 32 28.4037 32 28.4081C32 28.4125 32 28.4169 32 28.4214C32 28.4258 32 28.4302 32 28.4346C32 28.439 32 28.4435 32 28.4479C32 28.4523 32 28.4567 32 28.4611C32 28.4655 32 28.4699 32 28.4743C32 28.4787 32 28.4832 32 28.4876C32 28.492 32 28.4964 32 28.5008C32 28.5052 32 28.5096 32 28.514C32 28.5183 32 28.5227 32 28.5271C32 28.5315 32 28.5359 32 28.5403C32 28.5447 32 28.5491 32 28.5535C32 28.5579 32 28.5622 32 28.5666C32 28.571 32 28.5754 32 28.5798C32 28.5841 32 28.5885 32 28.5929C32 28.5973 32 28.6016 32 28.606C32 28.6104 32 28.6147 32 28.6191C32 28.6235 32 28.6279 32 28.6322C32 28.6366 32 28.6409 32 28.6453C32 28.6497 32 28.654 32 28.6584C32 28.6627 32 28.6671 32 28.6715C32 28.6758 32 28.6802 32 28.6845C32 28.6889 32 28.6932 32 28.6976C32 28.7019 32 28.7063 32 28.7106C32 28.7149 32 28.7193 32 28.7236C32 28.728 32 28.7323 32 28.7366C32 28.741 32 28.7453 32 28.7497C32 28.754 32 28.7583 32 28.7627C32 28.767 32 28.7713 32 28.7756C32 28.78 32 28.7843 32 28.7886C32 28.793 32 28.7973 32 28.8016C32 28.8059 32 28.8102 32 28.8146C32 28.8189 32 28.8232 32 28.8275C32 28.8318 32 28.8361 32 28.8405C32 28.8448 32 28.8491 32 28.8534C32 28.8577 32 28.862 32 28.8663C32 28.8706 32 28.8749 32 28.8792C32 28.8835 32 28.8878 32 28.8922C32 28.8965 32 28.9008 32 28.9051C32 28.9093 32 28.9136 32 28.9179C32 28.9222 32 28.9265 32 28.9308C32 28.9351 32 28.9394 32 28.9437C32 28.948 32 28.9523 32 28.9566C32 28.9609 32 28.9651 32 28.9694C32 28.9737 32 28.978 32 28.9823C32 28.9866 32 28.9908 32 28.9951C32 28.9994 32 29.0037 32 29.008C32 29.0122 32 29.0165 32 29.0208C32 29.025 32 29.0293 32 29.0336C32 29.0379 32 29.0421 32 29.0464C32 29.0507 32 29.0549 32 29.0592C32 29.0635 32 29.0677 32 29.072C32 29.0763 32 29.0805 32 29.0848C32 29.089 32 29.0933 32 29.0976C32 29.1018 32 29.1061 32 29.1103C32 29.1146 32 29.1188 32 29.1231C32 29.1274 32 29.1316 32 29.1359C32 29.1401 32 29.1444 32 29.1486C32 29.1529 32 29.1571 32 29.1613C32 29.1656 32 29.1698 32 29.1741C32 29.1783 32 29.1826 32 29.1868C32 29.191 32 29.1953 32 29.1995C32 29.2038 32 29.208 32 29.2122C32 29.2165 32 29.2207 32 29.2249C32 29.2292 32 29.2334 32 29.2376C32 29.2419 32 29.2461 32 29.2503C32 29.2546 32 29.2588 32 29.263C32 29.2673 32 29.2715 32 29.2757C32 29.2799 32 29.2842 32 29.2884C32 29.2926 32 29.2968 32 29.301C32 29.3053 32 29.3095 32 29.3137C32 29.3179 32 29.3221 32 29.3264C32 29.3306 32 29.3348 32 29.339C32 29.3432 32 29.3474 32 29.3516C32 29.3559 32 29.3601 32 29.3643C32 29.3685 32 29.3727 32 29.3769C32 29.3811 32 29.3853 32 29.3895C32 29.3937 32 29.3979 32 29.4022C32 29.4064 32 29.4106 32 29.4148C32 29.419 32 29.4232 32 29.4274C32 29.4316 32 29.4358 32 29.44C32 29.4442 32 29.4484 32 29.4526C32 29.4568 32 29.461 32 29.4652C32 29.4694 32 29.4735 32 29.4777C32 29.4819 32 29.4861 32 29.4903C32 29.4945 32 29.4987 32 29.5029C32 29.5071 32 29.5113 32 29.5155C32 29.5196 32 29.5238 32 29.528C32 29.5322 32 29.5364 32 29.5406C32 29.5448 32 29.5489 32 29.5531C32 29.5573 32 29.5615 32 29.5657C32 29.5699 32 29.574 32 29.5782C32 29.5824 32 29.5866 32 29.5908C32 29.5949 32 29.5991 32 29.6033C32 29.6075 32 29.6116 32 29.6158C32 29.62 32 29.6242 32 29.6283C32 29.6325 32 29.6367 32 29.6409C32 29.645 32 29.6492 32 29.6534C32 29.6576 32 29.6617 32 29.6659C32 29.6701 32 29.6742 32 29.6784C32 29.6826 32 29.6867 32 29.6909C32 29.6951 32 29.6992 32 29.7034C32 29.7076 32 29.7117 32 29.7159C32 29.7201 32 29.7242 32 29.7284C32 29.7325 32 29.7367 32 29.7409C32 29.745 32 29.7492 32 29.7534C32 29.7575 32 29.7617 32 29.7658C32 29.77 32 29.7741 32 29.7783C32 29.7825 32 29.7866 32 29.7908C32 29.7949 32 29.7991 32 29.8032C32 29.8074 32 29.8116 32 29.8157C32 29.8199 32 29.824 32 29.8282C32 29.8323 32 29.8365 32 29.8406C32 29.8448 32 29.8489 32 29.8531C32 29.8572 32 29.8614 32 29.8655C32 29.8697 32 29.8738 32 29.878C32 29.8821 32 29.8863 32 29.8904C32 29.8946 32 29.8987 32 29.9029C32 29.907 32 29.9112 32 29.9153C32 29.9194 32 29.9236 32 29.9277C32 29.9319 32 29.936 32 29.9402C32 29.9443 32 29.9485 32 29.9526C32 29.9567 32 29.9609 32 29.965C32 29.9692 32 29.9733 32 29.9775C32 29.9816 32 29.9857 32 29.9899C32 29.994 32 29.9982 32 30.0023C32 30.0064 32 30.0106 32 30.0147C32 30.0189 32 30.023 32 30.0271C32 30.0313 32 30.0354 32 30.0395C32 30.0437 32 30.0478 32 30.052C32 30.0561 32 30.0602 32 30.0644C32 30.0685 32 30.0726 32 30.0768C32 30.0809 32 30.085 32 30.0892C32 30.0933 32 30.0975 32 30.1016C32 30.1057 32 30.1099 32 30.114C32 30.1181 32 30.1223 32 30.1264C32 30.1305 32 30.1347 32 30.1388C32 30.1429 32 30.1471 32 30.1512C32 30.1553 32 30.1595 32 30.1636C32 30.1677 32 30.1718 32 30.176C32 30.1801 32 30.1842 32 30.1884C32 30.1925 32 30.1966 32 30.2008C32 30.2049 32 30.209 32 30.2132C32 30.2173 32 30.2214 32 30.2255C32 30.2297 32 30.2338 32 30.2379C32 30.2421 32 30.2462 32 30.2503C32 30.2544 32 30.2586 32 30.2627C32 30.2668 32 30.271 32 30.2751C32 30.2792 32 30.2833 32 30.2875C32 30.2916 32 30.2957 32 30.2999C32 30.304 32 30.3081 32 30.3122C32 30.3164 32 30.3205 32 30.3246C32 30.3288 32 30.3329 32 30.337C32 30.3411 32 30.3453 32 30.3494C32 30.3535 32 30.3577 32 30.3618C32 30.3659 32 30.37 32 30.3742C32 30.3783 32 30.3824 32 30.3865C32 30.3907 32 30.3948 32 30.3989C32 30.4031 32 30.4072 32 30.4113C32 30.4154 32 30.4196 32 30.4237C32 30.4278 32 30.4319 32 30.4361C32 30.4402 32 30.4443 32 30.4485C32 30.4526 32 30.4567 32 30.4608C32 30.465 32 30.4691 32 30.4732C32 30.4773 32 30.4815 32 30.4856C32 30.4897 32 30.4939 32 30.498C32 30.5021 32 30.5062 32 30.5104C32 30.5145 32 30.5186 32 30.5228C32 30.5269 32 30.531 32 30.5351C32 30.5393 32 30.5434 32 30.5475C32 30.5517 32 30.5558 32 30.5599C32 30.564 32 30.5682 32 30.5723C32 30.5764 32 30.5806 32 30.5847C32 30.5888 32 30.593 32 30.5971C32 30.6012 32 30.6053 32 30.6095C32 30.6136 32 30.6177 32 30.6219C32 30.626 32 30.6301 32 30.6343C32 30.6384 32 30.6425 32 30.6467C32 30.6508 32 30.6549 32 30.6591C32 30.6632 32 30.6673 32 30.6715C32 30.6756 32 30.6797 32 30.6839C32 30.688 32 30.6921 32 30.6963C32 30.7004 32 30.7045 32 30.7087C32 30.7128 32 30.7169 32 30.7211C32 30.7252 32 30.7293 32 30.7335C32 30.7376 32 30.7417 32 30.7459C32 30.75 32 30.7542 32 30.7583C32 30.7624 32 30.7666 32 30.7707C32 30.7748 32 30.779 32 30.7831C32 30.7873 32 30.7914 32 30.7955C32 30.7997 32 30.8038 32 30.808C32 30.8121 32 30.8162 32 30.8204C32 30.8245 32 30.8287 32 30.8328C32 30.837 32 30.8411 32 30.8452C32 30.8494 32 30.8535 32 30.8577C32 30.8618 32 30.866 32 30.8701C32 30.8742 32 30.8784 32 30.8825C32 30.8867 32 30.8908 32 30.895C32 30.8991 32 30.9033 32 30.9074C32 30.9116 32 30.9157 32 30.9199C32 30.924 32 30.9282 32 30.9323C32 30.9365 32 30.9406 32 30.9448C32 30.9489 32 30.9531 32 30.9572C32 30.9614 32 30.9655 32 30.9697C32 30.9738 32 30.978 32 30.9821C32 30.9863 32 30.9904 32 30.9946C32 30.9987 32 31.0029 32 31.0071C32 31.0112 32 31.0154 32 31.0195C32 31.0237 32 31.0278 32 31.032C32 31.0362 32 31.0403 32 31.0445C32 31.0486 32 31.0528 32 31.057C32 31.0611 32 31.0653 32 31.0694C32 31.0736 32 31.0778 32 31.0819C32 31.0861 32 31.0903 32 31.0944C32 31.0986 32 31.1028 32 31.1069C32 31.1111 32 31.1153 32 31.1194C32 31.1236 32 31.1278 32 31.1319C32 31.1361 32 31.1403 32 31.1444C32 31.1486 32 31.1528 32 31.157C32 31.1611 32 31.1653 32 31.1695C32 31.1736 32 31.1778 32 31.182C32 31.1862 32 31.1903 32 31.1945C32 31.1987 32 31.2029 32 31.2071C32 31.2112 32 31.2154 32 31.2196C32 31.2238 32 31.228 32 31.2321C32 31.2363 32 31.2405 32 31.2447C32 31.2489 32 31.2531 32 31.2572C32 31.2614 32 31.2656 32 31.2698C32 31.274 32 31.2782 32 31.2824C32 31.2865 32 31.2907 32 31.2949C32 31.2991 32 31.3033 32 31.3075C32 31.3117 32 31.3159 32 31.3201C32 31.3243 32 31.3285 32 31.3327C32 31.3368 32 31.341 32 31.3452C32 31.3494 32 31.3536 32 31.3578C32 31.362 32 31.3662 32 31.3704C32 31.3746 32 31.3788 32 31.383C32 31.3872 32 31.3914 32 31.3956C32 31.3999 32 31.4041 32 31.4083C32 31.4125 32 31.4167 32 31.4209C32 31.4251 32 31.4293 32 31.4335C32 31.4377 32 31.4419 32 31.4461C32 31.4504 32 31.4546 32 31.4588C32 31.463 32 31.4672 32 31.4714C32 31.4757 32 31.4799 32 31.4841C32 31.4883 32 31.4925 32 31.4967C32 31.501 32 31.5052 32 31.5094C32 31.5136 32 31.5179 32 31.5221C32 31.5263 32 31.5305 32 31.5348C32 31.539 32 31.5432 32 31.5474C32 31.5517 32 31.5559 32 31.5601C32 31.5644 32 31.5686 32 31.5728C32 31.5771 32 31.5813 32 31.5855C32 31.5898 32 31.594 32 31.5983C32 31.6025 32 31.6067 32 31.611C32 31.6152 32 31.6195 32 31.6237C32 31.6279 32 31.6322 32 31.6364C32 31.6407 32 31.6449 32 31.6492C32 31.6534 32 31.6577 32 31.6619C32 31.6662 32 31.6704 32 31.6747C32 31.6789 32 31.6832 32 31.6874C32 31.6917 32 31.6959 32 31.7002C32 31.7045 32 31.7087 32 31.713C32 31.7172 32 31.7215 32 31.7258C32 31.73 32 31.7343 32 31.7386C32 31.7428 32 31.7471 32 31.7514C32 31.7556 32 31.7599 32 31.7642C32 31.7684 32 31.7727 32 31.777C32 31.7813 32 31.7855 32 31.7898C32 31.7941 32 31.7984 32 31.8026C32 31.8069 32 31.8112 32 31.8155C32 31.8198 32 31.824 32 31.8283C32 31.8326 32 31.8369 32 31.8412C32 31.8455 32 31.8498 32 31.854C32 31.8583 32 31.8626 32 31.8669C32 31.8712 32 31.8755 32 31.8798C32 31.8841 32 31.8884 32 31.8927C32 31.897 32 31.9013 32 31.9056C32 31.9099 32 31.9142 32 31.9185C32 31.9228 32 31.9271 32 31.9314C32 31.9357 32 31.94 32 31.9443C32 31.9487 32 31.953 32 31.9573C32 31.9616 32 31.9659 32 31.9702C32 31.9745 32 31.9789 32 31.9832C32 31.9875 32 31.9918 32 31.9961C32 32.0005 32 32.0048 32 32.0091C32 32.0134 32 32.0178 32 32.0221C32 32.0264 32 32.0307 32 32.0351C32 32.0394 32 32.0437 32 32.0481C32 32.0524 32 32.0567 32 32.0611C32 32.0654 32 32.0698 32 32.0741C32 32.0784 32 32.0828 32 32.0871C32 32.0915 32 32.0958 32 32.1002C32 32.1045 32 32.1089 32 32.1132C32 32.1176 32 32.1219 32 32.1263C32 32.1306 32 32.135 32 32.1393C32 32.1437 32 32.148 32 32.1524C32 32.1568 32 32.1611 32 32.1655C32 32.1699 32 32.1742 32 32.1786C32 32.183 32 32.1873 32 32.1917C32 32.1961 32 32.2004 32 32.2048C32 32.2092 32 32.2136 32 32.2179C32 32.2223 32 32.2267 32 32.2311C32 32.2355 32 32.2398 32 32.2442C32 32.2486 32 32.253 32 32.2574C32 32.2618 32 32.2662 32 32.2706C32 32.2749 32 32.2793 32 32.2837C32 32.2881 32 32.2925 32 32.2969C32 32.3013 32 32.3057 32 32.3101C32 32.3145 32 32.3189 32 32.3233C32 32.3277 32 32.3322 32 32.3366C32 32.341 32 32.3454 32 32.3498C32 32.3542 32 32.3586 32 32.363C32 32.3675 32 32.3719 32 32.3763C32 32.3807 32 32.3851 32 32.3896C32 32.394 32 32.3984 32 32.4028C32 32.4073 32 32.4117 32 32.4161C32 32.4206 32 32.425 32 32.4294C32 32.4339 32 32.4383 32 32.4428C32 32.4472 32 32.4516 32 32.4561C32 32.4605 32 32.465 32 32.4694C32 32.4739 32 32.4783 32 32.4828C32 32.4872 32 32.4917 32 32.4961C32 32.5006 32 32.505 32 32.5095C32 32.514 32 32.5184 32 32.5229C32 32.5274 32 32.5318 32 32.5363C32 32.5408 32 32.5452 32 32.5497C32 32.5542 32 32.5586 32 32.5631C32 32.5676 32 32.5721 32 32.5766C32 32.581 32 32.5855 32 32.59C32 32.5945 32 32.599 32 32.6035C32 32.608 32 32.6124 32 32.6169C32 32.6214 32 32.6259 32 32.6304C32 32.6349 32 32.6394 32 32.6439C32 32.6484 32 32.6529 32 32.6574C32 32.6619 32 32.6664 32 32.6709C32 32.6755 32 32.68 32 32.6845C32 32.689 32 32.6935 32 32.698C32 32.7026 32 32.7071 32 32.7116C32 32.7161 32 32.7206 32 32.7252C32 32.7297 32 32.7342 32 32.7388C32 32.7433 32 32.7478 32 32.7524C32 32.7569 32 32.7614 32 32.766C32 32.7705 32 32.7751 32 32.7796C32 32.7841 32 32.7887 32 32.7932C32 32.7978 32 32.8023 32 32.8069C32 32.8115 32 32.816 32 32.8206C32 32.8251 32 32.8297 32 32.8342C32 32.8388 32 32.8434 32 32.8479C32 32.8525 32 32.8571 32 32.8617C32 32.8662 32 32.8708 32 32.8754C32 32.88 32 32.8845 32 32.8891C32 32.8937 32 32.8983 32 32.9029C32 32.9075 32 32.912 32 32.9166C32 32.9212 32 32.9258 32 32.9304C32 32.935 32 32.9396 32 32.9442C32 32.9488 32 32.9534 32 32.958C32 32.9626 32 32.9672 32 32.9718C32 32.9764 32 32.9811 32 32.9857C32 32.9903 32 32.9949 32 32.9995H34ZM0 39.8002C0 40.3438 -0.000777721 40.8116 0.0305694 41.1952C0.0628704 41.5906 0.134186 41.9838 0.32698 42.3622L2.10899 41.4542C2.0838 41.4048 2.04612 41.304 2.02393 41.0324C2.00078 40.749 2 40.3768 2 39.8002H0ZM4.2 42.0002C3.62345 42.0002 3.25117 41.9994 2.96784 41.9763C2.69617 41.9541 2.59545 41.9164 2.54601 41.8912L1.63803 43.6732C2.01641 43.866 2.40963 43.9373 2.80497 43.9696C3.18864 44.001 3.65645 44.0002 4.2 44.0002V42.0002ZM0.32698 42.3622C0.614601 42.9267 1.07354 43.3856 1.63803 43.6732L2.54601 41.8912C2.35785 41.7953 2.20487 41.6424 2.10899 41.4542L0.32698 42.3622ZM31.604 35.7574C31.9208 35.6954 32.1993 35.6414 32.4182 35.586C32.6216 35.5345 32.8967 35.4542 33.1397 35.2856L32 33.6421C32.0708 33.5931 32.0954 33.6046 31.9273 33.6471C31.7746 33.6858 31.5605 33.728 31.2204 33.7945L31.604 35.7574ZM32 32.9995C32 33.2968 31.9995 33.4725 31.9915 33.5995C31.9833 33.7278 31.9714 33.7074 32 33.6421L33.8316 34.4455C33.9444 34.1882 33.9746 33.9298 33.9875 33.726C34.0005 33.5209 34 33.2704 34 32.9995H32ZM33.1397 35.2856C33.4652 35.0599 33.6725 34.8082 33.8316 34.4455L32 33.6421C31.9905 33.6638 31.9862 33.6708 31.9873 33.669C31.9879 33.668 31.9897 33.665 31.9928 33.6605C31.9959 33.656 31.9997 33.6509 32.0041 33.6455C32.0086 33.6402 32.0129 33.6354 32.0167 33.6315C32.0204 33.6277 32.0231 33.6253 32.024 33.6245C32.0255 33.6231 32.0195 33.6286 32 33.6421L33.1397 35.2856ZM2 37.8002C2 37.2237 2.00078 36.8514 2.02393 36.5681C2.04612 36.2964 2.0838 36.1957 2.10899 36.1462L0.32698 35.2383C0.134186 35.6166 0.0628704 36.0099 0.0305695 36.4052C-0.000777721 36.7889 0 37.2567 0 37.8002H2ZM4.2 33.6002C3.65645 33.6002 3.18864 33.5995 2.80497 33.6308C2.40963 33.6631 2.01641 33.7344 1.63803 33.9272L2.54601 35.7092C2.59545 35.684 2.69617 35.6464 2.96784 35.6242C3.25117 35.601 3.62345 35.6002 4.2 35.6002V33.6002ZM2.10899 36.1462C2.20487 35.9581 2.35785 35.8051 2.54601 35.7092L1.63803 33.9272C1.07354 34.2148 0.614601 34.6738 0.32698 35.2383L2.10899 36.1462Z" fill="white"/>
</svg>
