<svg width="799" height="576" viewBox="0 0 799 576" fill="none" xmlns="http://www.w3.org/2000/svg">
<path d="M655.052 3.48175C656.605 2.07892 658.411 0.913585 660.55 0L659.777 8.0196C658.253 7.63485 656.625 7.4306 654.977 7.4306C654.508 7.4306 654.029 7.44801 653.517 7.48126C652.87 7.52243 652.264 7.57784 651.617 7.62693C652.579 6.11642 653.705 4.71359 655.052 3.48175Z" fill="black" fill-opacity="0.26"/>
<path d="M598.221 360.154C587.641 354.66 577.271 348.732 567.266 342.401C568.382 325.018 570.011 307.718 571.67 290.851C572.693 280.355 573.663 270.173 574.498 260.204C576.158 261.564 577.513 262.709 578.223 263.298C591.307 278.978 614.783 306.164 637.444 327.873C630.961 340.17 621.696 353.239 598.221 360.154Z" fill="black" fill-opacity="0.26"/>
<path d="M539.7 288.838C538.657 299.434 537.625 310.373 536.695 321.477C521.546 310.305 507.39 298.732 494.4 287.461C492.261 263.598 491.218 238.249 491.863 211.237C511.739 218.907 529.632 228.868 543.968 238.086C543.081 254.108 541.433 271.103 539.7 288.838Z" fill="black" fill-opacity="0.26"/>
<path d="M423.443 198.362C435.85 197.908 448.182 199.327 460.167 201.839C459.5 220.661 459.51 238.812 460.209 256.183C452.416 248.722 445.321 241.774 439.237 235.793C432.121 228.783 426.1 222.855 421.293 218.455C414.291 212.014 406.83 206.244 398.778 201.079C406.856 199.539 415.088 198.625 423.443 198.362Z" fill="black" fill-opacity="0.26"/>
<path d="M187.086 188.384C247.159 187.032 293.014 190.896 328.42 200.086C301.387 216.1 281.784 235.852 267.672 250.07C262.712 255.055 258.438 259.373 255.012 262.324C243.331 272.376 233.91 284.487 227.05 294.724C221.985 244.53 190.352 211.374 164.112 192.162C170.835 189.863 178.43 188.572 187.086 188.384Z" fill="black" fill-opacity="0.26"/>
<path d="M157.693 432.143L176.259 445.644L165.405 456.757L149.164 444.233L157.693 432.143Z" fill="#4A76B3" fill-opacity="0.26"/>
<path d="M97.8533 318.029C96.9868 316.958 96.2627 316.134 95.958 315.833C90.5647 310.354 80.7773 309.453 73.8033 313.645C66.8431 317.869 65.478 325.877 70.6042 331.53C70.9069 331.864 77.9541 339.804 74.0467 351.751C71.1304 360.736 61.8673 373.077 36.9923 387.086C43.1176 363.282 41.1807 327.939 15.532 277.285L12.6475 271.753C-1.11266 245.71 -10.5875 210.834 22.4546 192.553C50.5842 176.968 95.3823 181.064 109.698 191.981C110.903 192.896 112.286 193.664 113.778 194.248C113.819 194.264 114.001 194.332 114.284 194.445C89.2214 226.463 90.8219 277.354 97.8533 318.029Z" fill="black" fill-opacity="0.26"/>
<path d="M123.635 424.552L144.553 382.695C145.888 380.015 146.054 377.084 145.053 374.319C133.086 341.606 110.064 250.591 140.62 209.431C167.433 228.334 203.449 265.945 194.273 328.22L125.31 425.844L123.635 424.552Z" fill="black" fill-opacity="0.26"/>
<path d="M95.6828 528.196C91.6249 532.354 91.166 538.1 94.5412 542.641L113.993 568.842H86.9558V532.338L132.905 467.277L145.597 477.064L95.6828 528.196Z" fill="black" fill-opacity="0.26"/>
<path d="M223.704 480.144L230.318 504.493L210.723 535.862L206.169 530.92L216.16 505.796C218.022 501.128 216.394 496.035 212.007 492.67L188.632 474.66L200.042 462.954L223.704 480.144Z" fill="black" fill-opacity="0.26"/>
<path d="M454.429 351.303C367.921 332.249 306.827 331.38 272.699 348.731C258.448 356.011 252.746 364.561 250.512 369.571L196.036 425.363L174.595 409.799L242.703 328.039C243.376 327.238 243.92 326.386 244.347 325.485C244.472 325.217 257.722 297.68 278.49 279.766C282.751 276.088 287.391 271.42 292.752 266.018C309.304 249.353 331.528 226.951 363.171 212.46C375.956 218.589 387.12 226.094 397.1 235.279C401.717 239.521 407.502 245.214 414.358 251.971C427.043 264.461 443.611 280.697 463.12 298.063C465.154 318.119 468.025 337.073 471.499 354.908C466.033 353.807 460.325 352.612 454.429 351.303Z" fill="black" fill-opacity="0.26"/>
<path d="M499.471 328.524C510.592 337.241 522.342 345.841 534.63 354.124C534.464 357.447 534.295 360.769 534.212 364.11C525.428 363.41 515.85 362.324 505.426 360.804C503.206 350.492 501.245 339.662 499.471 328.524Z" fill="black" fill-opacity="0.26"/>
<path d="M594.404 575.999V560.319C594.404 557.623 593.328 554.958 591.314 552.746C590.562 551.927 540.796 496.069 511.865 387.598C519.712 388.543 527.18 389.26 534.236 389.768C536.218 455.44 554.068 521.477 619.736 570.565L620.142 576H594.404V575.999Z" fill="black" fill-opacity="0.26"/>
<path d="M639.798 486.498C637.628 485.504 635.125 484.894 632.452 484.802C624.022 484.402 616.532 489.687 615.792 496.543C615.758 496.836 615.74 497.228 615.74 497.629V526.118C615.74 527.271 616.084 528.355 616.458 529.424C579.285 489.704 567.713 440.893 566.148 390.512C576.239 390.195 585.189 389.259 593.38 387.864C616.688 398.903 641.134 407.746 666.464 412.721C674.061 416.738 689.073 426.867 690.69 438.463C691.806 446.454 686.246 455.037 674.257 464.039C655.665 477.948 645.191 483.943 639.798 486.498Z" fill="black" fill-opacity="0.26"/>
<path d="M714.061 395.489C722.147 410.918 733.05 441.428 715.169 472.271C696.023 505.318 666.551 512.733 647.801 513.786V511.924C657.43 508.792 671.724 501.028 696.138 482.75C715.982 467.879 724.861 451.932 722.513 435.449C718.6 407.87 684.6 391.413 680.76 389.627C679.385 388.976 677.881 388.508 676.348 388.224C661.145 385.401 646.238 380.825 631.589 375.198C644.736 367.782 653.76 358.298 660.677 348.062C668.545 354.005 675.742 358.398 681.616 360.068C687.122 361.656 702.823 374.038 714.061 395.489Z" fill="black" fill-opacity="0.26"/>
<path d="M647.457 296.629C633.162 281.766 617.752 264.554 604.168 248.258C603.761 247.762 603.312 247.301 602.821 246.865C601.707 245.867 592.056 237.35 576.446 226.463C576.488 225.242 576.571 223.987 576.593 222.772C577.323 179.492 586.232 151.437 603.082 139.377C608.258 135.656 614.466 133.398 621.583 132.028C620.54 132.294 619.515 132.628 618.546 133.072C614.437 134.946 611.578 138.168 610.699 141.88C598.399 194.871 609.271 212.033 626.036 230.482C628.197 232.849 630.357 235.262 632.474 237.92C641.353 249.379 649.042 274.236 647.457 296.629Z" fill="black" fill-opacity="0.26"/>
<path d="M632.047 132.199C629.896 131.57 627.643 131.336 625.411 131.456C630.201 130.788 635.282 130.37 640.956 130.37C647.457 130.37 654.561 130.745 662.303 131.342C672.193 132.113 682.919 135.475 693.717 140.364C674.384 141.906 647.572 136.8 632.047 132.199Z" fill="black" fill-opacity="0.26"/>
<path d="M665.389 105.806C637.65 103.636 606.014 102.822 581.693 120.264C559.774 135.961 548.089 163.802 545.262 206.945C529.996 198.469 512.376 190.263 493.262 183.971C496.192 166.323 516.976 67.697 616.522 39.7812C617.636 42.6281 619.984 45.0838 623.157 46.7194C659.965 65.5928 709.679 99.6139 716.075 121.109C699.757 113.075 682.396 107.122 665.389 105.806Z" fill="black" fill-opacity="0.26"/>
<path d="M783.942 167.873C774.699 159.74 761.459 148.907 746.007 138.561C746.298 137.868 746.603 137.166 746.864 136.457C761.063 98.1037 690.116 52.6857 655.26 33.1062C655.634 33.0729 655.968 33.0476 656.366 33.0191C659.039 32.8354 661.5 32.134 663.617 31.0479C664.515 31.7208 665.516 32.3082 666.602 32.8133C702.503 49.1786 794.21 101.619 799 151.608L783.942 167.873Z" fill="black" fill-opacity="0.26"/>
</svg>
