<svg width="47" height="50" viewBox="0 0 47 50" fill="none" xmlns="http://www.w3.org/2000/svg">
<path d="M7.63896 29.2318C7.30135 28.8576 6.75634 28.8576 6.41873 29.2318L1.25321 34.9625C0.915596 35.3367 0.915596 35.9408 1.25321 36.315L12.4476 48.7226C12.6164 48.9097 12.8382 49.0006 13.0553 49.0006C13.2723 49.0006 13.4942 48.9097 13.663 48.7226L18.8285 42.9973C19.1661 42.623 19.1661 42.019 18.8285 41.6448L7.63896 29.2318Z" fill="white" stroke="#4A76B3" stroke-width="0.3"/>
<path d="M43.1652 4.14333C39.3984 -0.0317389 33.6927 -0.0317389 29.8873 4.14333L27.9146 6.32976L25.942 4.14333C24.1092 2.11727 21.7508 1 19.3006 1C16.8505 1 14.492 2.11727 12.6641 4.14333C8.87796 8.33978 8.87796 14.6639 12.6641 18.855L17.2412 23.9281C15.3602 24.1259 13.7155 25.8847 13.5226 26.0985L10.9374 28.9639C10.5998 29.3381 10.5998 29.9422 10.9374 30.3164C11.275 30.6906 11.82 30.6906 12.1577 30.3164L14.7428 27.451C15.1238 27.0287 16.4647 25.8205 17.5788 25.8205H20.1833C20.9935 25.8312 21.5241 25.8205 22.1366 26.4941C23.2507 27.729 24.389 27.713 25.3295 27.729H30.5336C30.6445 27.7343 30.9725 27.7611 31.1606 27.9642C31.2908 28.1085 31.3583 28.3491 31.3583 28.6805C31.3583 29.012 31.2908 29.2579 31.1606 29.3969C30.9725 29.6 30.6445 29.6374 30.4998 29.6321H23.6076C23.1302 29.6321 22.7443 30.0598 22.7443 30.589C22.7443 31.1182 23.1302 31.5459 23.6076 31.5459H30.4516C30.4661 31.5459 30.495 31.5459 30.5384 31.5459C30.823 31.5459 31.6815 31.4817 32.3422 30.7921C32.6798 30.4393 33.085 29.7818 33.085 28.6805C33.085 28.6217 33.0705 28.579 33.0705 28.5255C34.1895 28.1834 35.5351 27.3067 36.273 26.4941C36.273 26.4941 36.273 26.4941 36.2779 26.4888L36.2875 26.4781C36.9097 25.7938 37.3052 25.3555 37.802 24.7995L38.4338 24.0992C38.7617 23.7357 39.1476 23.4844 39.4997 23.4042C39.9 23.3134 40.1074 23.4844 40.228 23.6181C40.3775 23.7838 40.445 23.9655 40.445 24.1954C40.445 24.6231 40.1942 25.1577 39.7987 25.5907C39.1862 26.2536 36.2393 29.5412 34.2859 31.717L32.4773 33.727C31.0062 35.3574 29.5593 35.3574 28.778 35.3574H22.7491C22.5369 35.3574 20.6366 35.3895 19.5563 36.5923L18.6929 37.5492C18.3553 37.9234 18.3553 38.5275 18.6929 38.9017C18.8617 39.0888 19.0836 39.1797 19.3006 39.1797C19.5177 39.1797 19.7395 39.0888 19.9083 38.9017L20.7717 37.9448C21.2636 37.3995 22.3922 37.2712 22.7443 37.2712H28.7732C29.651 37.2712 31.7152 37.2712 33.6879 35.0848L35.4965 33.0694C37.445 30.899 40.3919 27.6167 40.9948 26.9645C41.7279 26.168 42.1572 25.1684 42.1572 24.2168C42.162 23.4737 41.9112 22.8055 41.4337 22.2763C41.1877 22.0036 40.9032 21.8219 40.5993 21.6882L43.1556 18.855C46.9465 14.6639 46.9465 8.33978 43.1652 4.14333ZM32.3374 26.5743C31.5802 25.7778 30.5625 25.8152 30.495 25.8205H25.3054C24.4951 25.8312 23.9645 25.8205 23.352 25.147C22.2379 23.9121 21.0996 23.8854 20.1591 23.9121H19.6575L13.8795 17.5078C10.7927 14.0812 10.7927 8.91713 13.8795 5.49582C16.9711 2.06916 21.6302 2.06916 24.7218 5.49582L27.3069 8.36116C27.6446 8.73537 28.1896 8.73537 28.5272 8.36116L31.1075 5.50116C34.2666 2.03708 38.8244 2.03174 41.9498 5.49582C45.0414 8.92247 45.0414 14.0865 41.9498 17.5078L35.0576 25.1416C34.3969 25.8687 33.1525 26.5743 32.4725 26.74C32.429 26.6812 32.3808 26.6171 32.3374 26.5743Z" fill="white" stroke="#4A76B3" stroke-width="0.3"/>
</svg>
