<svg width="40" height="47" viewBox="0 0 40 47" fill="none" xmlns="http://www.w3.org/2000/svg">
<path d="M14.5714 20.999H25.4286" stroke="white" stroke-width="1.5" stroke-linecap="round" stroke-linejoin="round"/>
<path d="M20 15.998L20 25.998" stroke="white" stroke-width="1.5" stroke-linecap="round" stroke-linejoin="round"/>
<path d="M18.5526 45.5486C19.4248 46.1505 20.5752 46.1505 21.4474 45.5486C25.8849 42.4859 39 32.4677 39 21.0433V8.71762C39 8.05324 38.4634 7.49696 37.7587 7.43085C32.3369 6.9222 27.133 5.16507 22.6092 2.31555L20.9531 1.27232C20.3766 0.909225 19.6234 0.909225 19.0469 1.27232L17.3908 2.31555C12.867 5.16507 7.66308 6.9222 2.24128 7.43085C1.53662 7.49696 1 8.05324 1 8.71762V21.0433C1 32.4677 14.1151 42.4859 18.5526 45.5486Z" stroke="white" stroke-width="2" stroke-linecap="round" stroke-linejoin="round"/>
</svg>
